<?xml version="1.0" standalone="no"?>
<svg viewBox="0 0 200 200" xmlns="http://www.w3.org/2000/svg">
  <path fill="#002166" d="M30.9,-57.8C40.9,-47.7,50.5,-41.2,61.7,-32.2C72.9,-23.1,85.6,-11.6,86.4,0.4C87.1,12.4,75.8,24.8,65.1,34.6C54.3,44.5,44.2,51.7,33.4,57.7C22.7,63.8,11.3,68.8,-1.3,71C-13.9,73.2,-27.8,72.8,-39.4,67.1C-50.9,61.5,-60,50.7,-66.7,38.7C-73.4,26.6,-77.7,13.3,-78.1,-0.2C-78.5,-13.8,-75,-27.5,-68.4,-39.7C-61.7,-51.8,-51.9,-62.4,-40,-71.4C-28.1,-80.4,-14,-87.9,-1.8,-84.8C10.4,-81.7,20.9,-68,30.9,-57.8Z" transform="translate(100 100)" />
</svg>
