<?xml version="1.0" standalone="no"?>
<svg viewBox="0 0 200 200" xmlns="http://www.w3.org/2000/svg">
  <path fill="#002166" d="M41.4,-69.7C54.3,-64.2,65.8,-54.4,70.7,-42.1C75.6,-29.8,73.8,-14.9,73.4,-0.2C73,14.4,73.9,28.8,69.3,41.6C64.6,54.3,54.4,65.4,41.9,72.8C29.5,80.1,14.7,83.6,2,80.2C-10.8,76.8,-21.5,66.4,-34.8,59.5C-48,52.6,-63.6,49.2,-73.6,39.8C-83.6,30.5,-87.9,15.2,-86.9,0.6C-85.8,-14,-79.3,-28,-71.1,-40.5C-63,-52.9,-53,-63.8,-40.9,-69.7C-28.8,-75.6,-14.4,-76.5,-0.1,-76.4C14.2,-76.3,28.5,-75.1,41.4,-69.7Z" transform="translate(100 100)" />
</svg>
