<?xml version="1.0" encoding="UTF-8"?>
<svg width="95px" height="85px" viewBox="0 0 95 85" version="1.1" xmlns="http://www.w3.org/2000/svg" xmlns:xlink="http://www.w3.org/1999/xlink">
    <!-- Generator: Sketch 52.5 (67469) - http://www.bohemiancoding.com/sketch -->
    <title>logo-blue</title>
    <desc>Created with Sketch.</desc>
    <g id="logo-blue" stroke="none" stroke-width="1" fill="none" fill-rule="evenodd">
        <g id="finances" fill-rule="nonzero">
            <polygon id="Shape" fill-opacity="0.7" fill="#1084FE" points="58.5456055 27 0 64.1304726 36.4543945 85 59.8728223 70.1479231 64.3751172 62.7217912 71.5817578 62.7217912 95 47.8697143"></polygon>
            <polygon id="Shape" fill-opacity="0.7" fill="#1084FE" points="58.5456055 18 0 55.130353 36.4543945 76 95 38.869647"></polygon>
            <polygon id="Shape" fill-opacity="0.7" fill="#1084FE" points="58.5456055 9 0 46.130353 36.4543945 67 95 29.869647"></polygon>
            <polygon id="Shape" fill-opacity="0.7" fill="#1084FE" points="58.5456055 0 35.1275488 14.8520769 35.1275488 22.2782088 23.4182422 22.2782088 0 37.1302857 36.4543945 58 95 20.8695274"></polygon>
            <polygon id="Shape" fill="#FFFFFF" points="34.6699982 15 24 22.3752312 60.3304466 43.1018988 66.1653157 44 71 35.7264821"></polygon>
            <polygon id="Shape" fill="#DCE8FF" points="60 43.29034 60 70 71 62.7098435 71 36"></polygon>
        </g>
    </g>
</svg>