<svg xmlns="http://www.w3.org/2000/svg" viewBox="0 0 500 500" width="500" height="500" preserveAspectRatio="xMidYMid meet" style="width: 100%; height: 100%; transform: translate3d(0px, 0px, 0px);"><defs><clipPath id="__lottie_element_73"><rect width="500" height="500" x="0" y="0"></rect></clipPath></defs><g clip-path="url(#__lottie_element_73)"><g style="display: block;" transform="matrix(1,0,0,1,131.93899536132812,72.30300903320312)" opacity="1"><g opacity="1" transform="matrix(1,0,0,1,128.09500122070312,187.05599975585938)"><path fill="rgb(64,64,64)" fill-opacity="0.25" d=" M-126.71600341796875,113.08799743652344 C-126.71600341796875,122.31500244140625 -127.2750015258789,131.8280029296875 -124.8010025024414,140.82000732421875 C-118.76100158691406,162.78399658203125 -100.38400268554688,176.1439971923828 -79.03500366210938,179.45199584960938 C-77.22699737548828,179.88099670410156 -75.28700256347656,180.13299560546875 -73.18199920654297,180.13299560546875 C-72.04000091552734,180.2100067138672 -70.95700073242188,180.1929931640625 -69.90299987792969,180.13299560546875 C-69.90299987792969,180.13299560546875 8.001999855041504,180.13299560546875 8.001999855041504,180.13299560546875 C35.76900100708008,180.13299560546875 74.86699676513672,186.80599975585938 98.64900207519531,170.63400268554688 C127.84500122070312,150.7790069580078 121.94599914550781,111.95099639892578 121.94599914550781,81.14299774169922 C121.94599914550781,81.14299774169922 121.94599914550781,-26.916000366210938 121.94599914550781,-26.916000366210938 C121.94599914550781,-40.10200119018555 123.14399719238281,-53.935001373291016 118.72699737548828,-66.51799774169922 C111.7239990234375,-86.46800231933594 96.64099884033203,-95.94499969482422 78.92400360107422,-99.81199645996094 C78.92400360107422,-99.81199645996094 78.92400360107422,-116.6989974975586 78.92400360107422,-116.6989974975586 C91.48100280761719,-139.80999755859375 78.91200256347656,-173.20199584960938 51.5880012512207,-181.6790008544922 C35.0620002746582,-186.80599975585938 14.604000091552734,-183.9770050048828 -2.385999917984009,-183.9770050048828 C-18.83099937438965,-183.9770050048828 -38.270999908447266,-186.64599609375 -54.37699890136719,-182.22500610351562 C-82.6510009765625,-174.46299743652344 -96.77899932861328,-140.27999877929688 -83.697998046875,-116.5780029296875 C-83.697998046875,-116.5780029296875 -83.697998046875,-99.56400299072266 -83.697998046875,-99.56400299072266 C-105.08899688720703,-94.5459976196289 -122.54499816894531,-81.48699951171875 -126.0250015258789,-55.74399948120117 C-127.84500122070312,-42.27299880981445 -126.71600341796875,-27.666000366210938 -126.71600341796875,-14.079999923706055 C-126.71600341796875,-14.079999923706055 -126.71600341796875,113.08799743652344 -126.71600341796875,113.08799743652344z"></path></g></g><g transform="matrix(1,0,0,1,116.5,56.86399841308594)" opacity="1" style="display: block;"><g opacity="1" transform="matrix(1,0,0,1,128.093994140625,187.05599975585938)"><path fill="rgb(255,255,255)" fill-opacity="1" d=" M-126.71499633789062,113.08799743652344 C-126.71499633789062,122.31500244140625 -127.2750015258789,131.82699584960938 -124.8010025024414,140.82000732421875 C-118.76000213623047,162.78399658203125 -100.38400268554688,176.1439971923828 -79.03399658203125,179.45199584960938 C-77.22599792480469,179.88099670410156 -75.28700256347656,180.13299560546875 -73.18099975585938,180.13299560546875 C-72.03900146484375,180.2100067138672 -70.95600128173828,180.19200134277344 -69.9020004272461,180.13299560546875 C-69.9020004272461,180.13299560546875 8.003000259399414,180.13299560546875 8.003000259399414,180.13299560546875 C35.76900100708008,180.13299560546875 74.86799621582031,186.80599975585938 98.6500015258789,170.63400268554688 C127.84500122070312,150.7790069580078 121.94599914550781,111.95099639892578 121.94599914550781,81.14199829101562 C121.94599914550781,81.14199829101562 121.94599914550781,-26.91699981689453 121.94599914550781,-26.91699981689453 C121.94599914550781,-40.10200119018555 123.1449966430664,-53.93600082397461 118.72799682617188,-66.51799774169922 C111.7249984741211,-86.46900177001953 96.64199829101562,-95.94499969482422 78.92500305175781,-99.81199645996094 C78.92500305175781,-99.81199645996094 78.92500305175781,-116.69999694824219 78.92500305175781,-116.69999694824219 C91.48100280761719,-139.81100463867188 78.91200256347656,-173.2030029296875 51.5890007019043,-181.6790008544922 C35.0629997253418,-186.80599975585938 14.604999542236328,-183.9770050048828 -2.385999917984009,-183.9770050048828 C-18.829999923706055,-183.9770050048828 -38.27000045776367,-186.64700317382812 -54.375999450683594,-182.22500610351562 C-82.6500015258789,-174.46299743652344 -96.77799987792969,-140.281005859375 -83.6969985961914,-116.5780029296875 C-83.6969985961914,-116.5780029296875 -83.6969985961914,-99.56400299072266 -83.6969985961914,-99.56400299072266 C-105.08799743652344,-94.5459976196289 -122.54499816894531,-81.48799896240234 -126.02400207519531,-55.74399948120117 C-127.84400177001953,-42.27299880981445 -126.71499633789062,-27.666000366210938 -126.71499633789062,-14.081000328063965 C-126.71499633789062,-14.081000328063965 -126.71499633789062,113.08799743652344 -126.71499633789062,113.08799743652344z"></path></g></g><g style="display: block;" transform="matrix(1,0,0,1,209.6999969482422,142.75698852539062)" opacity="1"><g opacity="1" transform="matrix(1,0,0,1,32.50699996948242,18.114999771118164)"><path fill="rgb(255,255,255)" fill-opacity="1" d=" M27.93000030517578,13.536999702453613 C27.93000030517578,13.536999702453613 14.491000175476074,13.536999702453613 14.491000175476074,13.536999702453613 C14.491000175476074,13.536999702453613 14.491000175476074,0.39399999380111694 14.491000175476074,0.39399999380111694 C14.491000175476074,0.12300000339746475 14.270999908447266,-0.09600000083446503 13.99899959564209,-0.09600000083446503 C13.99899959564209,-0.09600000083446503 -13.99899959564209,-0.09600000083446503 -13.99899959564209,-0.09600000083446503 C-14.270000457763672,-0.09600000083446503 -14.489999771118164,0.12300000339746475 -14.489999771118164,0.39399999380111694 C-14.489999771118164,0.39399999380111694 -14.489999771118164,13.536999702453613 -14.489999771118164,13.536999702453613 C-14.489999771118164,13.536999702453613 -27.93000030517578,13.536999702453613 -27.93000030517578,13.536999702453613 C-27.93000030517578,13.536999702453613 -27.93000030517578,0.39399999380111694 -27.93000030517578,0.39399999380111694 C-27.93000030517578,-7.2870001792907715 -21.680999755859375,-13.536999702453613 -13.99899959564209,-13.536999702453613 C-13.99899959564209,-13.536999702453613 13.99899959564209,-13.536999702453613 13.99899959564209,-13.536999702453613 C21.680999755859375,-13.536999702453613 27.93000030517578,-7.2870001792907715 27.93000030517578,0.39399999380111694 C27.93000030517578,0.39399999380111694 27.93000030517578,13.536999702453613 27.93000030517578,13.536999702453613z"></path></g><g opacity="1" transform="matrix(1,0,0,1,32.50699996948242,18.114999771118164)"><path fill="rgb(69,42,23)" fill-opacity="1" d=" M32.25699996948242,17.864999771118164 C32.25699996948242,17.864999771118164 10.163999557495117,17.864999771118164 10.163999557495117,17.864999771118164 C10.163999557495117,17.864999771118164 10.163999557495117,4.230000019073486 10.163999557495117,4.230000019073486 C10.163999557495117,4.230000019073486 -10.163000106811523,4.230000019073486 -10.163000106811523,4.230000019073486 C-10.163000106811523,4.230000019073486 -10.163000106811523,17.864999771118164 -10.163000106811523,17.864999771118164 C-10.163000106811523,17.864999771118164 -32.25699996948242,17.864999771118164 -32.25699996948242,17.864999771118164 C-32.25699996948242,17.864999771118164 -32.25699996948242,0.3930000066757202 -32.25699996948242,0.3930000066757202 C-32.25699996948242,-9.675000190734863 -24.066999435424805,-17.864999771118164 -13.998000144958496,-17.864999771118164 C-13.998000144958496,-17.864999771118164 14.00100040435791,-17.864999771118164 14.00100040435791,-17.864999771118164 C24.066999435424805,-17.864999771118164 32.25699996948242,-9.675000190734863 32.25699996948242,0.3930000066757202 C32.25699996948242,0.3930000066757202 32.25699996948242,17.864999771118164 32.25699996948242,17.864999771118164z M18.81800079345703,9.210000038146973 C18.81800079345703,9.210000038146973 23.601999282836914,9.210000038146973 23.601999282836914,9.210000038146973 C23.601999282836914,9.210000038146973 23.601999282836914,0.3930000066757202 23.601999282836914,0.3930000066757202 C23.601999282836914,-4.9019999504089355 19.295000076293945,-9.210000038146973 14.00100040435791,-9.210000038146973 C14.00100040435791,-9.210000038146973 -13.998000144958496,-9.210000038146973 -13.998000144958496,-9.210000038146973 C-19.295000076293945,-9.210000038146973 -23.601999282836914,-4.9019999504089355 -23.601999282836914,0.3930000066757202 C-23.601999282836914,0.3930000066757202 -23.601999282836914,9.210000038146973 -23.601999282836914,9.210000038146973 C-23.601999282836914,9.210000038146973 -18.81800079345703,9.210000038146973 -18.81800079345703,9.210000038146973 C-18.81800079345703,9.210000038146973 -18.81800079345703,0.3930000066757202 -18.81800079345703,0.3930000066757202 C-18.81800079345703,-2.2639999389648438 -16.655000686645508,-4.425000190734863 -13.998000144958496,-4.425000190734863 C-13.998000144958496,-4.425000190734863 14.00100040435791,-4.425000190734863 14.00100040435791,-4.425000190734863 C16.658000946044922,-4.425000190734863 18.81800079345703,-2.2639999389648438 18.81800079345703,0.3930000066757202 C18.81800079345703,0.3930000066757202 18.81800079345703,9.210000038146973 18.81800079345703,9.210000038146973z"></path></g></g><g style="display: block;" transform="matrix(1,0,0,1,140.78799438476562,164.7429962158203)" opacity="1"><g opacity="1" transform="matrix(1,0,0,1,101.41999816894531,118.19999694824219)"><path fill="rgb(18,88,180)" fill-opacity="1" d=" M72.5989990234375,113.62200164794922 C72.5989990234375,113.62200164794922 -72.5989990234375,113.62200164794922 -72.5989990234375,113.62200164794922 C-85.98799896240234,113.62200164794922 -96.84300231933594,102.76799774169922 -96.84300231933594,89.37799835205078 C-96.84300231933594,89.37799835205078 -96.84300231933594,-89.37799835205078 -96.84300231933594,-89.37799835205078 C-96.84300231933594,-102.76699829101562 -85.98799896240234,-113.62200164794922 -72.5989990234375,-113.62200164794922 C-72.5989990234375,-113.62200164794922 72.5989990234375,-113.62200164794922 72.5989990234375,-113.62200164794922 C85.98899841308594,-113.62200164794922 96.84300231933594,-102.76699829101562 96.84300231933594,-89.37799835205078 C96.84300231933594,-89.37799835205078 96.84300231933594,89.37799835205078 96.84300231933594,89.37799835205078 C96.84300231933594,102.76799774169922 85.98899841308594,113.62200164794922 72.5989990234375,113.62200164794922z"></path></g><g opacity="1" transform="matrix(1,0,0,1,101.4209976196289,118.19999694824219)"><path fill="rgb(69,42,23)" fill-opacity="1" d=" M70.79399871826172,117.94999694824219 C70.79399871826172,117.94999694824219 -70.7969970703125,117.94999694824219 -70.7969970703125,117.94999694824219 C-87.5459976196289,117.94999694824219 -101.1709976196289,104.3239974975586 -101.1709976196289,87.57499694824219 C-101.1709976196289,87.57499694824219 -101.1709976196289,-87.5739974975586 -101.1709976196289,-87.5739974975586 C-101.1709976196289,-104.322998046875 -87.5459976196289,-117.94999694824219 -70.7969970703125,-117.94999694824219 C-70.7969970703125,-117.94999694824219 70.79399871826172,-117.94999694824219 70.79399871826172,-117.94999694824219 C87.54299926757812,-117.94999694824219 101.1709976196289,-104.322998046875 101.1709976196289,-87.5739974975586 C101.1709976196289,-87.5739974975586 101.1709976196289,87.57499694824219 101.1709976196289,87.57499694824219 C101.1709976196289,104.3239974975586 87.54299926757812,117.94999694824219 70.79399871826172,117.94999694824219z M-70.7969970703125,-109.29499816894531 C-82.77300262451172,-109.29499816894531 -92.51599884033203,-99.5510025024414 -92.51599884033203,-87.5739974975586 C-92.51599884033203,-87.5739974975586 -92.51599884033203,87.57499694824219 -92.51599884033203,87.57499694824219 C-92.51599884033203,99.5510025024414 -82.77300262451172,109.29499816894531 -70.7969970703125,109.29499816894531 C-70.7969970703125,109.29499816894531 70.79399871826172,109.29499816894531 70.79399871826172,109.29499816894531 C82.77100372314453,109.29499816894531 92.51599884033203,99.5510025024414 92.51599884033203,87.57499694824219 C92.51599884033203,87.57499694824219 92.51599884033203,-87.5739974975586 92.51599884033203,-87.5739974975586 C92.51599884033203,-99.5510025024414 82.77100372314453,-109.29499816894531 70.79399871826172,-109.29499816894531 C70.79399871826172,-109.29499816894531 -70.7969970703125,-109.29499816894531 -70.7969970703125,-109.29499816894531z"></path></g></g><g style="display: block;" transform="matrix(1,0,0,1,140.7880096435547,164.74400329589844)" opacity="1"><g opacity="1" transform="matrix(1,0,0,1,21.010000228881836,21.01099967956543)"><path fill="rgb(18,88,180)" fill-opacity="1" d=" M16.433000564575195,-16.433000564575195 C16.433000564575195,-16.433000564575195 9.614999771118164,-16.433000564575195 9.614999771118164,-16.433000564575195 C-4.770999908447266,-16.433000564575195 -16.433000564575195,-4.770999908447266 -16.433000564575195,9.614999771118164 C-16.433000564575195,9.614999771118164 -16.433000564575195,16.433000564575195 -16.433000564575195,16.433000564575195 C1.718000054359436,16.433000564575195 16.433000564575195,1.718999981880188 16.433000564575195,-16.433000564575195z"></path></g><g opacity="1" transform="matrix(1,0,0,1,21.010000228881836,21.01099967956543)"><path fill="rgb(69,42,23)" fill-opacity="1" d=" M-16.43199920654297,20.76099967956543 C-16.43199920654297,20.76099967956543 -20.760000228881836,20.76099967956543 -20.760000228881836,20.76099967956543 C-20.760000228881836,20.76099967956543 -20.760000228881836,9.614999771118164 -20.760000228881836,9.614999771118164 C-20.760000228881836,-7.133999824523926 -7.135000228881836,-20.76099967956543 9.61400032043457,-20.76099967956543 C9.61400032043457,-20.76099967956543 20.760000228881836,-20.76099967956543 20.760000228881836,-20.76099967956543 C20.760000228881836,-20.76099967956543 20.760000228881836,-16.43400001525879 20.760000228881836,-16.43400001525879 C20.760000228881836,4.074999809265137 4.074999809265137,20.76099967956543 -16.43199920654297,20.76099967956543z M9.61400032043457,-12.105999946594238 C-2.361999988555908,-12.105999946594238 -12.104999542236328,-2.361999988555908 -12.104999542236328,9.614999771118164 C-12.104999542236328,9.614999771118164 -12.104999542236328,11.779000282287598 -12.104999542236328,11.779000282287598 C0.17299999296665192,9.902999877929688 9.902000427246094,0.17299999296665192 11.777999877929688,-12.105999946594238 C11.777999877929688,-12.105999946594238 9.61400032043457,-12.105999946594238 9.61400032043457,-12.105999946594238z"></path></g></g><g style="display: block;" transform="matrix(1,0,0,1,301.6080017089844,164.74400329589844)" opacity="1"><g opacity="1" transform="matrix(1,0,0,1,21.010000228881836,21.01099967956543)"><path fill="rgb(18,88,180)" fill-opacity="1" d=" M16.433000564575195,16.433000564575195 C16.433000564575195,16.433000564575195 16.433000564575195,9.614999771118164 16.433000564575195,9.614999771118164 C16.433000564575195,-4.770999908447266 4.770999908447266,-16.433000564575195 -9.614999771118164,-16.433000564575195 C-9.614999771118164,-16.433000564575195 -16.433000564575195,-16.433000564575195 -16.433000564575195,-16.433000564575195 C-16.433000564575195,1.718999981880188 -1.718000054359436,16.433000564575195 16.433000564575195,16.433000564575195z"></path></g><g opacity="1" transform="matrix(1,0,0,1,21.01099967956543,21.01099967956543)"><path fill="rgb(69,42,23)" fill-opacity="1" d=" M20.76099967956543,20.76099967956543 C20.76099967956543,20.76099967956543 16.433000564575195,20.76099967956543 16.433000564575195,20.76099967956543 C-4.077000141143799,20.76099967956543 -20.76099967956543,4.074999809265137 -20.76099967956543,-16.43400001525879 C-20.76099967956543,-16.43400001525879 -20.76099967956543,-20.76099967956543 -20.76099967956543,-20.76099967956543 C-20.76099967956543,-20.76099967956543 -9.616000175476074,-20.76099967956543 -9.616000175476074,-20.76099967956543 C7.132999897003174,-20.76099967956543 20.76099967956543,-7.133999824523926 20.76099967956543,9.614999771118164 C20.76099967956543,9.614999771118164 20.76099967956543,20.76099967956543 20.76099967956543,20.76099967956543z M-11.779000282287598,-12.105999946594238 C-9.902999877929688,0.17299999296665192 -0.17499999701976776,9.902999877929688 12.105999946594238,11.779000282287598 C12.105999946594238,11.779000282287598 12.105999946594238,9.614999771118164 12.105999946594238,9.614999771118164 C12.105999946594238,-2.361999988555908 2.3610000610351562,-12.105999946594238 -9.616000175476074,-12.105999946594238 C-9.616000175476074,-12.105999946594238 -11.779000282287598,-12.105999946594238 -11.779000282287598,-12.105999946594238z"></path></g></g><g style="display: block;" transform="matrix(1,0,0,1,140.78799438476562,359.1219787597656)" opacity="1"><g opacity="1" transform="matrix(1,0,0,1,21.010000228881836,21.01099967956543)"><path fill="rgb(18,88,180)" fill-opacity="1" d=" M-16.433000564575195,-16.433000564575195 C-16.433000564575195,-16.433000564575195 -16.433000564575195,-9.616000175476074 -16.433000564575195,-9.616000175476074 C-16.433000564575195,4.770999908447266 -4.770999908447266,16.433000564575195 9.614999771118164,16.433000564575195 C9.614999771118164,16.433000564575195 16.433000564575195,16.433000564575195 16.433000564575195,16.433000564575195 C16.433000564575195,-1.718000054359436 1.718000054359436,-16.433000564575195 -16.433000564575195,-16.433000564575195z"></path></g><g opacity="1" transform="matrix(1,0,0,1,21.009000778198242,21.010000228881836)"><path fill="rgb(69,42,23)" fill-opacity="1" d=" M20.760000228881836,20.760000228881836 C20.760000228881836,20.760000228881836 9.614999771118164,20.760000228881836 9.614999771118164,20.760000228881836 C-7.133999824523926,20.760000228881836 -20.760000228881836,7.133999824523926 -20.760000228881836,-9.614999771118164 C-20.760000228881836,-9.614999771118164 -20.760000228881836,-20.760000228881836 -20.760000228881836,-20.760000228881836 C-20.760000228881836,-20.760000228881836 -16.43199920654297,-20.760000228881836 -16.43199920654297,-20.760000228881836 C4.076000213623047,-20.760000228881836 20.760000228881836,-4.074999809265137 20.760000228881836,16.43400001525879 C20.760000228881836,16.43400001525879 20.760000228881836,20.760000228881836 20.760000228881836,20.760000228881836z M-12.104000091552734,-11.779999732971191 C-12.104000091552734,-11.779999732971191 -12.104000091552734,-9.614999771118164 -12.104000091552734,-9.614999771118164 C-12.104000091552734,2.361999988555908 -2.3610000610351562,12.105999946594238 9.614999771118164,12.105999946594238 C9.614999771118164,12.105999946594238 11.777000427246094,12.105999946594238 11.777000427246094,12.105999946594238 C9.901000022888184,-0.17499999701976776 0.17399999499320984,-9.904000282287598 -12.104000091552734,-11.779999732971191z"></path></g></g><g style="display: block;" transform="matrix(1,0,0,1,301.6080017089844,359.1209716796875)" opacity="1"><g opacity="1" transform="matrix(1,0,0,1,21.010000228881836,21.01099967956543)"><path fill="rgb(18,88,180)" fill-opacity="1" d=" M16.433000564575195,-9.616000175476074 C16.433000564575195,-9.616000175476074 16.433000564575195,-16.433000564575195 16.433000564575195,-16.433000564575195 C-1.718000054359436,-16.433000564575195 -16.433000564575195,-1.718999981880188 -16.433000564575195,16.433000564575195 C-16.433000564575195,16.433000564575195 -9.614999771118164,16.433000564575195 -9.614999771118164,16.433000564575195 C4.770999908447266,16.433000564575195 16.433000564575195,4.770999908447266 16.433000564575195,-9.616000175476074z"></path></g><g opacity="1" transform="matrix(1,0,0,1,21.01099967956543,21.01099967956543)"><path fill="rgb(69,42,23)" fill-opacity="1" d=" M-9.616000175476074,20.760000228881836 C-9.616000175476074,20.760000228881836 -20.76099967956543,20.760000228881836 -20.76099967956543,20.760000228881836 C-20.76099967956543,20.760000228881836 -20.76099967956543,16.43400001525879 -20.76099967956543,16.43400001525879 C-20.76099967956543,-4.074999809265137 -4.077000141143799,-20.760000228881836 16.433000564575195,-20.760000228881836 C16.433000564575195,-20.760000228881836 20.76099967956543,-20.760000228881836 20.76099967956543,-20.760000228881836 C20.76099967956543,-20.760000228881836 20.76099967956543,-9.614999771118164 20.76099967956543,-9.614999771118164 C20.76099967956543,7.133999824523926 7.132999897003174,20.760000228881836 -9.616000175476074,20.760000228881836z M-11.779000282287598,12.105999946594238 C-11.779000282287598,12.105999946594238 -9.616000175476074,12.105999946594238 -9.616000175476074,12.105999946594238 C2.3610000610351562,12.105999946594238 12.105999946594238,2.361999988555908 12.105999946594238,-9.614999771118164 C12.105999946594238,-9.614999771118164 12.105999946594238,-11.779000282287598 12.105999946594238,-11.779000282287598 C-0.17499999701976776,-9.902999877929688 -9.902999877929688,-0.17399999499320984 -11.779000282287598,12.105999946594238z"></path></g></g><g style="display: block;" transform="matrix(1,0,0,1,179.7379913330078,164.7429962158203)" opacity="1"><g opacity="1" transform="matrix(1,0,0,1,18.65999984741211,162.45899963378906)"><path fill="rgb(255,255,255)" fill-opacity="1" d=" M14.081000328063965,69.36299896240234 C14.081000328063965,69.36299896240234 -14.081000328063965,69.36299896240234 -14.081000328063965,69.36299896240234 C-14.081000328063965,69.36299896240234 -14.081000328063965,-69.36299896240234 -14.081000328063965,-69.36299896240234 C-14.081000328063965,-69.36299896240234 14.081000328063965,-69.36299896240234 14.081000328063965,-69.36299896240234 C14.081000328063965,-69.36299896240234 14.081000328063965,69.36299896240234 14.081000328063965,69.36299896240234z"></path></g><g opacity="1" transform="matrix(1,0,0,1,18.65999984741211,162.4600067138672)"><path fill="rgb(69,42,23)" fill-opacity="1" d=" M18.40999984741211,73.68900299072266 C18.40999984741211,73.68900299072266 -18.40999984741211,73.68900299072266 -18.40999984741211,73.68900299072266 C-18.40999984741211,73.68900299072266 -18.40999984741211,-73.68900299072266 -18.40999984741211,-73.68900299072266 C-18.40999984741211,-73.68900299072266 18.40999984741211,-73.68900299072266 18.40999984741211,-73.68900299072266 C18.40999984741211,-73.68900299072266 18.40999984741211,73.68900299072266 18.40999984741211,73.68900299072266z M-9.755000114440918,65.03500366210938 C-9.755000114440918,65.03500366210938 9.755000114440918,65.03500366210938 9.755000114440918,65.03500366210938 C9.755000114440918,65.03500366210938 9.755000114440918,-65.03600311279297 9.755000114440918,-65.03600311279297 C9.755000114440918,-65.03600311279297 -9.755000114440918,-65.03600311279297 -9.755000114440918,-65.03600311279297 C-9.755000114440918,-65.03600311279297 -9.755000114440918,65.03500366210938 -9.755000114440918,65.03500366210938z"></path></g><g opacity="1" transform="matrix(1,0,0,1,18.65999984741211,71.98100280761719)"><path fill="rgb(255,255,255)" fill-opacity="1" d=" M0,67.40299987792969 C0,67.40299987792969 0,67.40299987792969 0,67.40299987792969 C-7.7769999504089355,67.40299987792969 -14.081999778747559,61.097999572753906 -14.081999778747559,53.321998596191406 C-14.081999778747559,53.321998596191406 -14.081999778747559,-67.40299987792969 -14.081999778747559,-67.40299987792969 C-14.081999778747559,-67.40299987792969 14.081999778747559,-67.40299987792969 14.081999778747559,-67.40299987792969 C14.081999778747559,-67.40299987792969 14.081999778747559,53.321998596191406 14.081999778747559,53.321998596191406 C14.081999778747559,61.097999572753906 7.7769999504089355,67.40299987792969 0,67.40299987792969z"></path></g><g opacity="1" transform="matrix(1,0,0,1,18.65999984741211,71.98100280761719)"><path fill="rgb(69,42,23)" fill-opacity="1" d=" M0.0010000000474974513,71.73100280761719 C-10.14900016784668,71.73100280761719 -18.40999984741211,63.47100067138672 -18.40999984741211,53.32099914550781 C-18.40999984741211,53.32099914550781 -18.40999984741211,-71.73100280761719 -18.40999984741211,-71.73100280761719 C-18.40999984741211,-71.73100280761719 18.40999984741211,-71.73100280761719 18.40999984741211,-71.73100280761719 C18.40999984741211,-71.73100280761719 18.40999984741211,53.32099914550781 18.40999984741211,53.32099914550781 C18.40999984741211,63.47100067138672 10.152999877929688,71.73100280761719 0.0010000000474974513,71.73100280761719z M-9.755000114440918,-63.07600021362305 C-9.755000114440918,-63.07600021362305 -9.755000114440918,53.32099914550781 -9.755000114440918,53.32099914550781 C-9.755000114440918,58.69900131225586 -5.380000114440918,63.07600021362305 0.0010000000474974513,63.07600021362305 C5.380000114440918,63.07600021362305 9.755000114440918,58.69900131225586 9.755000114440918,53.32099914550781 C9.755000114440918,53.32099914550781 9.755000114440918,-63.07600021362305 9.755000114440918,-63.07600021362305 C9.755000114440918,-63.07600021362305 -9.755000114440918,-63.07600021362305 -9.755000114440918,-63.07600021362305z"></path></g><g opacity="1" transform="matrix(1,0,0,1,18.65999984741211,99.98899841308594)"><path fill="rgb(69,42,23)" fill-opacity="1" d=" M0.0010000000474974513,22.979000091552734 C-10.14900016784668,22.979000091552734 -18.40999984741211,14.720999717712402 -18.40999984741211,4.570000171661377 C-18.40999984741211,4.570000171661377 -18.40999984741211,-4.572000026702881 -18.40999984741211,-4.572000026702881 C-18.40999984741211,-14.722000122070312 -10.14900016784668,-22.979000091552734 0.0010000000474974513,-22.979000091552734 C10.152000427246094,-22.979000091552734 18.40999984741211,-14.722000122070312 18.40999984741211,-4.572000026702881 C18.40999984741211,-4.572000026702881 18.40999984741211,4.570000171661377 18.40999984741211,4.570000171661377 C18.40999984741211,14.720999717712402 10.152000427246094,22.979000091552734 0.0010000000474974513,22.979000091552734z M0.0010000000474974513,-14.324999809265137 C-5.380000114440918,-14.324999809265137 -9.755000114440918,-9.949999809265137 -9.755000114440918,-4.572000026702881 C-9.755000114440918,-4.572000026702881 -9.755000114440918,4.570000171661377 -9.755000114440918,4.570000171661377 C-9.755000114440918,9.949000358581543 -5.380000114440918,14.324000358581543 0.0010000000474974513,14.324000358581543 C5.379000186920166,14.324000358581543 9.755000114440918,9.949000358581543 9.755000114440918,4.570000171661377 C9.755000114440918,4.570000171661377 9.755000114440918,-4.572000026702881 9.755000114440918,-4.572000026702881 C9.755000114440918,-9.949999809265137 5.379000186920166,-14.324999809265137 0.0010000000474974513,-14.324999809265137z"></path></g><g opacity="1" transform="matrix(1,0,0,1,18.65999984741211,109.2490005493164)"><path fill="rgb(69,42,23)" fill-opacity="1" d=" M0.0010000000474974513,16.927000045776367 C0.0010000000474974513,16.927000045776367 0.0010000000474974513,16.927000045776367 0.0010000000474974513,16.927000045776367 C-1.6360000371932983,16.927000045776367 -2.9649999141693115,15.600000381469727 -2.9649999141693115,13.961999893188477 C-2.9649999141693115,13.961999893188477 -2.9649999141693115,-13.963000297546387 -2.9649999141693115,-13.963000297546387 C-2.9649999141693115,-15.600000381469727 -1.6360000371932983,-16.927000045776367 0.0010000000474974513,-16.927000045776367 C1.6380000114440918,-16.927000045776367 2.9649999141693115,-15.600000381469727 2.9649999141693115,-13.963000297546387 C2.9649999141693115,-13.963000297546387 2.9649999141693115,13.961999893188477 2.9649999141693115,13.961999893188477 C2.9649999141693115,15.600000381469727 1.6380000114440918,16.927000045776367 0.0010000000474974513,16.927000045776367z"></path></g></g><g style="display: block;" transform="matrix(1,0,0,1,267.35699462890625,164.7429962158203)" opacity="1"><g opacity="1" transform="matrix(1,0,0,1,18.65999984741211,182.22300720214844)"><path fill="rgb(255,255,255)" fill-opacity="1" d=" M14.081999778747559,49.597999572753906 C14.081999778747559,49.597999572753906 -14.081999778747559,49.597999572753906 -14.081999778747559,49.597999572753906 C-14.081999778747559,49.597999572753906 -14.081999778747559,-49.597999572753906 -14.081999778747559,-49.597999572753906 C-14.081999778747559,-49.597999572753906 14.081999778747559,-49.597999572753906 14.081999778747559,-49.597999572753906 C14.081999778747559,-49.597999572753906 14.081999778747559,49.597999572753906 14.081999778747559,49.597999572753906z"></path></g><g opacity="1" transform="matrix(1,0,0,1,18.65999984741211,182.22300720214844)"><path fill="rgb(69,42,23)" fill-opacity="1" d=" M18.40999984741211,53.92599868774414 C18.40999984741211,53.92599868774414 -18.40999984741211,53.92599868774414 -18.40999984741211,53.92599868774414 C-18.40999984741211,53.92599868774414 -18.40999984741211,-53.92599868774414 -18.40999984741211,-53.92599868774414 C-18.40999984741211,-53.92599868774414 18.40999984741211,-53.92599868774414 18.40999984741211,-53.92599868774414 C18.40999984741211,-53.92599868774414 18.40999984741211,53.92599868774414 18.40999984741211,53.92599868774414z M-9.755999565124512,45.270999908447266 C-9.755999565124512,45.270999908447266 9.755000114440918,45.270999908447266 9.755000114440918,45.270999908447266 C9.755000114440918,45.270999908447266 9.755000114440918,-45.27199935913086 9.755000114440918,-45.27199935913086 C9.755000114440918,-45.27199935913086 -9.755999565124512,-45.27199935913086 -9.755999565124512,-45.27199935913086 C-9.755999565124512,-45.27199935913086 -9.755999565124512,45.270999908447266 -9.755999565124512,45.270999908447266z"></path></g><g opacity="1" transform="matrix(1,0,0,1,18.65999984741211,91.74500274658203)"><path fill="rgb(255,255,255)" fill-opacity="1" d=" M0,87.16699981689453 C0,87.16699981689453 0,87.16699981689453 0,87.16699981689453 C-7.7769999504089355,87.16699981689453 -14.081999778747559,80.86199951171875 -14.081999778747559,73.08499908447266 C-14.081999778747559,73.08499908447266 -14.081999778747559,-87.16699981689453 -14.081999778747559,-87.16699981689453 C-14.081999778747559,-87.16699981689453 14.081999778747559,-87.16699981689453 14.081999778747559,-87.16699981689453 C14.081999778747559,-87.16699981689453 14.081999778747559,73.08499908447266 14.081999778747559,73.08499908447266 C14.081999778747559,80.86199951171875 7.7769999504089355,87.16699981689453 0,87.16699981689453z"></path></g><g opacity="1" transform="matrix(1,0,0,1,18.65999984741211,91.74400329589844)"><path fill="rgb(69,42,23)" fill-opacity="1" d=" M0.0020000000949949026,91.49500274658203 C-10.14900016784668,91.49500274658203 -18.40999984741211,83.23799896240234 -18.40999984741211,73.08599853515625 C-18.40999984741211,73.08599853515625 -18.40999984741211,-91.49500274658203 -18.40999984741211,-91.49500274658203 C-18.40999984741211,-91.49500274658203 18.40999984741211,-91.49500274658203 18.40999984741211,-91.49500274658203 C18.40999984741211,-91.49500274658203 18.40999984741211,73.08599853515625 18.40999984741211,73.08599853515625 C18.40999984741211,83.23799896240234 10.152999877929688,91.49500274658203 0.0020000000949949026,91.49500274658203z M-9.755000114440918,-82.83999633789062 C-9.755000114440918,-82.83999633789062 -9.755000114440918,73.08599853515625 -9.755000114440918,73.08599853515625 C-9.755000114440918,78.46499633789062 -5.379000186920166,82.83999633789062 0.0020000000949949026,82.83999633789062 C5.380000114440918,82.83999633789062 9.755999565124512,78.46499633789062 9.755999565124512,73.08599853515625 C9.755999565124512,73.08599853515625 9.755999565124512,-82.83999633789062 9.755999565124512,-82.83999633789062 C9.755999565124512,-82.83999633789062 -9.755000114440918,-82.83999633789062 -9.755000114440918,-82.83999633789062z"></path></g><g opacity="1" transform="matrix(1,0,0,1,18.659000396728516,139.51699829101562)"><path fill="rgb(69,42,23)" fill-opacity="1" d=" M0.0020000000949949026,22.979000091552734 C-10.14799976348877,22.979000091552734 -18.40999984741211,14.720000267028809 -18.40999984741211,4.570000171661377 C-18.40999984741211,4.570000171661377 -18.40999984741211,-4.572000026702881 -18.40999984741211,-4.572000026702881 C-18.40999984741211,-14.722000122070312 -10.14799976348877,-22.979999542236328 0.0020000000949949026,-22.979999542236328 C10.152999877929688,-22.979999542236328 18.40999984741211,-14.722000122070312 18.40999984741211,-4.572000026702881 C18.40999984741211,-4.572000026702881 18.40999984741211,4.570000171661377 18.40999984741211,4.570000171661377 C18.40999984741211,14.720000267028809 10.152999877929688,22.979000091552734 0.0020000000949949026,22.979000091552734z M0.0020000000949949026,-14.326000213623047 C-5.379000186920166,-14.326000213623047 -9.755999565124512,-9.949999809265137 -9.755999565124512,-4.572000026702881 C-9.755999565124512,-4.572000026702881 -9.755999565124512,4.570000171661377 -9.755999565124512,4.570000171661377 C-9.755999565124512,9.946999549865723 -5.379000186920166,14.322999954223633 0.0020000000949949026,14.322999954223633 C5.380000114440918,14.322999954223633 9.755999565124512,9.946999549865723 9.755999565124512,4.570000171661377 C9.755999565124512,4.570000171661377 9.755999565124512,-4.572000026702881 9.755999565124512,-4.572000026702881 C9.755999565124512,-9.949999809265137 5.380000114440918,-14.326000213623047 0.0020000000949949026,-14.326000213623047z"></path></g><g opacity="1" transform="matrix(1,0,0,1,18.65999984741211,148.7760009765625)"><path fill="rgb(69,42,23)" fill-opacity="1" d=" M0,16.927000045776367 C0,16.927000045776367 0,16.927000045776367 0,16.927000045776367 C-1.6369999647140503,16.927000045776367 -2.9649999141693115,15.600000381469727 -2.9649999141693115,13.963000297546387 C-2.9649999141693115,13.963000297546387 -2.9649999141693115,-13.963000297546387 -2.9649999141693115,-13.963000297546387 C-2.9649999141693115,-15.598999977111816 -1.6369999647140503,-16.927000045776367 0,-16.927000045776367 C1.6380000114440918,-16.927000045776367 2.9649999141693115,-15.598999977111816 2.9649999141693115,-13.963000297546387 C2.9649999141693115,-13.963000297546387 2.9649999141693115,13.963000297546387 2.9649999141693115,13.963000297546387 C2.9649999141693115,15.600000381469727 1.6380000114440918,16.927000045776367 0,16.927000045776367z"></path></g></g><g style="display: block;" transform="matrix(1,0,0,1,183.80599975585938,104.31499481201172)" opacity="1"><g opacity="1" transform="matrix(1,0,0,1,9.854999542236328,34.79199981689453)"><path fill="rgb(255,255,255)" fill-opacity="1" d=" M5.275000095367432,30.214000701904297 C5.275000095367432,30.214000701904297 -5.275000095367432,30.214000701904297 -5.275000095367432,30.214000701904297 C-5.275000095367432,30.214000701904297 -5.275000095367432,-30.214000701904297 -5.275000095367432,-30.214000701904297 C-5.275000095367432,-30.214000701904297 5.275000095367432,-30.214000701904297 5.275000095367432,-30.214000701904297 C5.275000095367432,-30.214000701904297 5.275000095367432,30.214000701904297 5.275000095367432,30.214000701904297z"></path></g><g opacity="1" transform="matrix(1,0,0,1,9.852999687194824,34.79199981689453)"><path fill="rgb(69,42,23)" fill-opacity="1" d=" M9.602999687194824,34.54199981689453 C9.602999687194824,34.54199981689453 -9.602999687194824,34.54199981689453 -9.602999687194824,34.54199981689453 C-9.602999687194824,34.54199981689453 -9.602999687194824,-34.54199981689453 -9.602999687194824,-34.54199981689453 C-9.602999687194824,-34.54199981689453 9.602999687194824,-34.54199981689453 9.602999687194824,-34.54199981689453 C9.602999687194824,-34.54199981689453 9.602999687194824,34.54199981689453 9.602999687194824,34.54199981689453z M-0.9480000138282776,25.886999130249023 C-0.9480000138282776,25.886999130249023 0.9480000138282776,25.886999130249023 0.9480000138282776,25.886999130249023 C0.9480000138282776,25.886999130249023 0.9480000138282776,-25.886999130249023 0.9480000138282776,-25.886999130249023 C0.9480000138282776,-25.886999130249023 -0.9480000138282776,-25.886999130249023 -0.9480000138282776,-25.886999130249023 C-0.9480000138282776,-25.886999130249023 -0.9480000138282776,25.886999130249023 -0.9480000138282776,25.886999130249023z"></path></g></g><g style="display: block;" transform="matrix(1,0,0,1,280.90301513671875,104.31499481201172)" opacity="1"><g opacity="1" transform="matrix(1,0,0,1,9.85200023651123,34.79199981689453)"><path fill="rgb(255,255,255)" fill-opacity="1" d=" M5.276000022888184,30.214000701904297 C5.276000022888184,30.214000701904297 -5.276000022888184,30.214000701904297 -5.276000022888184,30.214000701904297 C-5.276000022888184,30.214000701904297 -5.276000022888184,-30.214000701904297 -5.276000022888184,-30.214000701904297 C-5.276000022888184,-30.214000701904297 5.276000022888184,-30.214000701904297 5.276000022888184,-30.214000701904297 C5.276000022888184,-30.214000701904297 5.276000022888184,30.214000701904297 5.276000022888184,30.214000701904297z"></path></g><g opacity="1" transform="matrix(1,0,0,1,9.852999687194824,34.79199981689453)"><path fill="rgb(69,42,23)" fill-opacity="1" d=" M9.602999687194824,34.54199981689453 C9.602999687194824,34.54199981689453 -9.602999687194824,34.54199981689453 -9.602999687194824,34.54199981689453 C-9.602999687194824,34.54199981689453 -9.602999687194824,-34.54199981689453 -9.602999687194824,-34.54199981689453 C-9.602999687194824,-34.54199981689453 9.602999687194824,-34.54199981689453 9.602999687194824,-34.54199981689453 C9.602999687194824,-34.54199981689453 9.602999687194824,34.54199981689453 9.602999687194824,34.54199981689453z M-0.9480000138282776,25.886999130249023 C-0.9480000138282776,25.886999130249023 0.9480000138282776,25.886999130249023 0.9480000138282776,25.886999130249023 C0.9480000138282776,25.886999130249023 0.9480000138282776,-25.886999130249023 0.9480000138282776,-25.886999130249023 C0.9480000138282776,-25.886999130249023 -0.9480000138282776,-25.886999130249023 -0.9480000138282776,-25.886999130249023 C-0.9480000138282776,-25.886999130249023 -0.9480000138282776,25.886999130249023 -0.9480000138282776,25.886999130249023z"></path></g></g><g style="display: block;" transform="matrix(1,0,0,1,178.8419952392578,82.85200500488281)" opacity="1"><g opacity="1" transform="matrix(1,0,0,1,63.36600112915039,19.238000869750977)"><path fill="rgb(18,88,180)" fill-opacity="1" d=" M54.465999603271484,14.66100025177002 C54.465999603271484,14.66100025177002 44.630001068115234,14.66100025177002 44.630001068115234,14.66100025177002 C42.242000579833984,14.66100025177002 40.30799865722656,12.72700023651123 40.30799865722656,10.34000015258789 C40.30799865722656,10.34000015258789 40.30799865722656,4.493000030517578 40.30799865722656,4.493000030517578 C40.30799865722656,4.119999885559082 40.00600051879883,3.819000005722046 39.632999420166016,3.819000005722046 C39.632999420166016,3.819000005722046 -39.632999420166016,3.819000005722046 -39.632999420166016,3.819000005722046 C-40.00600051879883,3.819000005722046 -40.30699920654297,4.119999885559082 -40.30699920654297,4.493000030517578 C-40.30699920654297,4.493000030517578 -40.30699920654297,10.34000015258789 -40.30699920654297,10.34000015258789 C-40.30699920654297,12.72700023651123 -42.24300003051758,14.66100025177002 -44.630001068115234,14.66100025177002 C-44.630001068115234,14.66100025177002 -54.46699905395508,14.66100025177002 -54.46699905395508,14.66100025177002 C-56.85300064086914,14.66100025177002 -58.78799819946289,12.72700023651123 -58.78799819946289,10.34000015258789 C-58.78799819946289,10.34000015258789 -58.78799819946289,4.493000030517578 -58.78799819946289,4.493000030517578 C-58.78799819946289,-6.085999965667725 -50.21200180053711,-14.66100025177002 -39.632999420166016,-14.66100025177002 C-39.632999420166016,-14.66100025177002 39.632999420166016,-14.66100025177002 39.632999420166016,-14.66100025177002 C50.21200180053711,-14.66100025177002 58.78799819946289,-6.085999965667725 58.78799819946289,4.493000030517578 C58.78799819946289,4.493000030517578 58.78799819946289,10.34000015258789 58.78799819946289,10.34000015258789 C58.78799819946289,12.72700023651123 56.854000091552734,14.66100025177002 54.465999603271484,14.66100025177002z"></path></g><g opacity="1" transform="matrix(1,0,0,1,63.3650016784668,19.23900032043457)"><path fill="rgb(69,42,23)" fill-opacity="1" d=" M54.46699905395508,18.988000869750977 C54.46699905395508,18.988000869750977 44.63100051879883,18.988000869750977 44.63100051879883,18.988000869750977 C39.861000061035156,18.988000869750977 35.98099899291992,15.109999656677246 35.98099899291992,10.34000015258789 C35.98099899291992,10.34000015258789 35.98099899291992,8.147000312805176 35.98099899291992,8.147000312805176 C35.98099899291992,8.147000312805176 -35.979000091552734,8.147000312805176 -35.979000091552734,8.147000312805176 C-35.979000091552734,8.147000312805176 -35.979000091552734,10.34000015258789 -35.979000091552734,10.34000015258789 C-35.979000091552734,15.109999656677246 -39.858001708984375,18.988000869750977 -44.62799835205078,18.988000869750977 C-44.62799835205078,18.988000869750977 -54.465999603271484,18.988000869750977 -54.465999603271484,18.988000869750977 C-59.236000061035156,18.988000869750977 -63.1150016784668,15.109999656677246 -63.1150016784668,10.34000015258789 C-63.1150016784668,10.34000015258789 -63.1150016784668,4.493000030517578 -63.1150016784668,4.493000030517578 C-63.1150016784668,-8.456000328063965 -52.58100128173828,-18.988000869750977 -39.632999420166016,-18.988000869750977 C-39.632999420166016,-18.988000869750977 39.632999420166016,-18.988000869750977 39.632999420166016,-18.988000869750977 C52.58100128173828,-18.988000869750977 63.1150016784668,-8.456000328063965 63.1150016784668,4.493000030517578 C63.1150016784668,4.493000030517578 63.1150016784668,10.34000015258789 63.1150016784668,10.34000015258789 C63.1150016784668,15.109999656677246 59.236000061035156,18.988000869750977 54.46699905395508,18.988000869750977z M-39.632999420166016,-0.5090000033378601 C-39.632999420166016,-0.5090000033378601 39.632999420166016,-0.5090000033378601 39.632999420166016,-0.5090000033378601 C42.38999938964844,-0.5090000033378601 44.63600158691406,1.7350000143051147 44.63600158691406,4.493000030517578 C44.63600158691406,4.493000030517578 44.63600158691406,10.34000015258789 44.63600158691406,10.34000015258789 C44.63600158691406,10.34000015258789 54.47200012207031,10.333000183105469 54.47200012207031,10.333000183105469 C54.47200012207031,10.333000183105469 54.459999084472656,4.493000030517578 54.459999084472656,4.493000030517578 C54.459999084472656,-3.683000087738037 47.80799865722656,-10.335000038146973 39.632999420166016,-10.335000038146973 C39.632999420166016,-10.335000038146973 -39.632999420166016,-10.335000038146973 -39.632999420166016,-10.335000038146973 C-47.808998107910156,-10.335000038146973 -54.459999084472656,-3.683000087738037 -54.459999084472656,4.493000030517578 C-54.459999084472656,4.493000030517578 -54.459999084472656,10.34000015258789 -54.459999084472656,10.34000015258789 C-54.459999084472656,10.34000015258789 -44.62799835205078,10.333000183105469 -44.62799835205078,10.333000183105469 C-44.62799835205078,10.333000183105469 -44.632999420166016,4.493000030517578 -44.632999420166016,4.493000030517578 C-44.632999420166016,1.7350000143051147 -42.39099884033203,-0.5090000033378601 -39.632999420166016,-0.5090000033378601z"></path></g></g><g style="display: block;" transform="matrix(1,0,0,1,157.05599975585938,214.37600708007812)" opacity="1"><g opacity="1" transform="matrix(1,0,0,1,4.578000068664551,32.465999603271484)"><path fill="rgb(253,250,242)" fill-opacity="1" d=" M0,32.215999603271484 C0,32.215999603271484 0,32.215999603271484 0,32.215999603271484 C-2.390000104904175,32.215999603271484 -4.328000068664551,30.27899932861328 -4.328000068664551,27.888999938964844 C-4.328000068664551,27.888999938964844 -4.328000068664551,-27.88800048828125 -4.328000068664551,-27.88800048828125 C-4.328000068664551,-30.27899932861328 -2.390000104904175,-32.215999603271484 0,-32.215999603271484 C2.390000104904175,-32.215999603271484 4.328000068664551,-30.27899932861328 4.328000068664551,-27.88800048828125 C4.328000068664551,-27.88800048828125 4.328000068664551,27.888999938964844 4.328000068664551,27.888999938964844 C4.328000068664551,30.27899932861328 2.390000104904175,32.215999603271484 0,32.215999603271484z"></path></g></g><g style="display: block;" transform="matrix(1,0,0,1,157.05599975585938,289.6860046386719)" opacity="1"><g opacity="1" transform="matrix(1,0,0,1,4.578000068664551,13.12399959564209)"><path fill="rgb(253,250,242)" fill-opacity="1" d=" M0,12.87399959564209 C0,12.87399959564209 0,12.87399959564209 0,12.87399959564209 C-2.390000104904175,12.87399959564209 -4.328000068664551,10.937000274658203 -4.328000068664551,8.54699993133545 C-4.328000068664551,8.54699993133545 -4.328000068664551,-8.545999526977539 -4.328000068664551,-8.545999526977539 C-4.328000068664551,-10.937000274658203 -2.390000104904175,-12.87399959564209 0,-12.87399959564209 C2.390000104904175,-12.87399959564209 4.328000068664551,-10.937000274658203 4.328000068664551,-8.545999526977539 C4.328000068664551,-8.545999526977539 4.328000068664551,8.54699993133545 4.328000068664551,8.54699993133545 C4.328000068664551,10.937000274658203 2.390000104904175,12.87399959564209 0,12.87399959564209z"></path></g></g><g style="display: block;" transform="matrix(1,0,0,1,229.0830078125,178.48699951171875)" opacity="1"><g opacity="1" transform="matrix(1,0,0,1,13.12399959564209,4.577000141143799)"><path fill="rgb(253,250,242)" fill-opacity="1" d=" M-12.87399959564209,-0.0010000000474974513 C-12.87399959564209,-0.0010000000474974513 -12.87399959564209,-0.0010000000474974513 -12.87399959564209,-0.0010000000474974513 C-12.87399959564209,-2.3910000324249268 -10.937000274658203,-4.327000141143799 -8.54699993133545,-4.327000141143799 C-8.54699993133545,-4.327000141143799 8.545999526977539,-4.327000141143799 8.545999526977539,-4.327000141143799 C10.937000274658203,-4.327000141143799 12.87399959564209,-2.3910000324249268 12.87399959564209,-0.0010000000474974513 C12.87399959564209,2.3889999389648438 10.937000274658203,4.327000141143799 8.545999526977539,4.327000141143799 C8.545999526977539,4.327000141143799 -8.54699993133545,4.327000141143799 -8.54699993133545,4.327000141143799 C-10.937000274658203,4.327000141143799 -12.87399959564209,2.3889999389648438 -12.87399959564209,-0.0010000000474974513z"></path></g></g></g></svg>