<svg xmlns="http://www.w3.org/2000/svg" viewBox="0 0 500 500" width="500" height="500" preserveAspectRatio="xMidYMid meet" style="width: 100%; height: 100%; transform: translate3d(0px, 0px, 0px);"><defs><clipPath id="__lottie_element_5"><rect width="500" height="500" x="0" y="0"></rect></clipPath></defs><g clip-path="url(#__lottie_element_5)"><g style="display: block;" transform="matrix(1,0,0,1,52.97001647949219,69.21600341796875)" opacity="1"><g opacity="1" transform="matrix(1,0,0,1,203.66000366210938,186.25)"><path fill="rgb(64,64,64)" fill-opacity="0.25" d=" M201.27200317382812,123.70700073242188 C201.38499450683594,119.76300048828125 200.29400634765625,115.54000091552734 197.5399932861328,111.25199890136719 C196.85000610351562,109.70999908447266 195.9429931640625,108.34300231933594 194.88699340820312,107.12200164794922 C175.6020050048828,77.0979995727539 156.31700134277344,47.073001861572266 137.03199768066406,17.048999786376953 C126.2979965209961,0.33899998664855957 115.46600341796875,-18.0939998626709 93.26000213623047,-15.784000396728516 C106.51399993896484,-43.042999267578125 114.96199798583984,-71.20500183105469 104.75900268554688,-103.68900299072266 C92.37699890136719,-143.11300659179688 58.20500183105469,-173.08399963378906 17.229999542236328,-179.14700317382812 C-29.076000213623047,-186 -76.19400024414062,-162.31500244140625 -96.72200012207031,-119.75800323486328 C-107.07499694824219,-98.29499816894531 -110.2750015258789,-74.38899993896484 -105.85099792480469,-50.946998596191406 C-102.68699645996094,-34.189998626708984 -94.76399993896484,-18.864999771118164 -86.2300033569336,-3.9519999027252197 C-94.82499694824219,-1.024999976158142 -103.41999816894531,1.9019999504089355 -112.01399993896484,4.829999923706055 C-139.66000366210938,-5.574999809265137 -182.7449951171875,-25.8439998626709 -197.2310028076172,10.85200023651123 C-203.41000366210938,26.503000259399414 -196.65499877929688,39.15800094604492 -188.50599670410156,51.845001220703125 C-179.8560028076172,65.31099700927734 -171.20700073242188,78.7760009765625 -162.5570068359375,92.24199676513672 C-153.5260009765625,106.302001953125 -144.49600219726562,120.36100006103516 -135.46400451660156,134.42100524902344 C-128.16700744628906,145.781005859375 -121.9020004272461,155.43800354003906 -108.43699645996094,160.6540069580078 C-86.9010009765625,168.9969940185547 -63.202999114990234,178.75799560546875 -40.617000579833984,183.4759979248047 C-28.533000946044922,186 -35.66400146484375,184.29299926757812 -38.61800003051758,183.85499572753906 C-33.702999114990234,184.58299255371094 -29.405000686645508,184.76400756835938 -24.57200050354004,183.5659942626953 C-23.347999572753906,183.26400756835938 -22.18600082397461,182.6929931640625 -20.975000381469727,182.3419952392578 C-13.505999565124512,180.1750030517578 -6.163000106811523,177.2969970703125 1.1970000267028809,174.78900146484375 C1.1970000267028809,174.78900146484375 37.777000427246094,162.32899475097656 37.777000427246094,162.32899475097656 C51.15599822998047,166.88699340820312 64.53399658203125,171.44400024414062 77.91300201416016,176.00100708007812 C84.13099670410156,178.11900329589844 91.29900360107422,181.88900756835938 97.83300018310547,182.78500366210938 C101.41000366210938,183.27699279785156 92.73799896240234,180.74600219726562 93.31800079345703,180.7989959716797 C94.20899963378906,180.87899780273438 100.53800201416016,182.677001953125 104.19400024414062,183.64100646972656 C105.8740005493164,183.5030059814453 114.81400299072266,183.98199462890625 117.38099670410156,183.34300231933594 C133.76300048828125,179.2570037841797 149.89999389648438,172.26600646972656 165.88099670410156,166.82200622558594 C172.61000061035156,164.52999877929688 180.19500732421875,162.61900329589844 186.27699279785156,158.86000061035156 C199.36599731445312,150.7689971923828 203.41000366210938,137.17599487304688 201.27200317382812,123.70700073242188z"></path></g></g><g transform="matrix(1,0,0,1,37.529998779296875,53.774993896484375)" opacity="1" style="display: block;"><g opacity="1" transform="matrix(1,0,0,1,203.66099548339844,186.25)"><path fill="rgb(255,255,255)" fill-opacity="1" d=" M201.2729949951172,123.70800018310547 C201.38600158691406,119.76399993896484 200.29400634765625,115.54000091552734 197.54100036621094,111.25299835205078 C196.85000610351562,109.71099853515625 195.9429931640625,108.34400177001953 194.88800048828125,107.12300109863281 C175.6020050048828,77.0989990234375 156.31700134277344,47.07400131225586 137.031005859375,17.049999237060547 C126.2979965209961,0.3400000035762787 115.46600341796875,-18.093000411987305 93.26100158691406,-15.784000396728516 C106.51399993896484,-43.04199981689453 114.96299743652344,-71.20500183105469 104.76000213623047,-103.68800354003906 C92.37699890136719,-143.11199951171875 58.20600128173828,-173.08299255371094 17.231000900268555,-179.14599609375 C-29.075000762939453,-186 -76.19499969482422,-162.31399536132812 -96.72200012207031,-119.75800323486328 C-107.07499694824219,-98.29499816894531 -110.2750015258789,-74.38800048828125 -105.85099792480469,-50.946998596191406 C-102.68699645996094,-34.18899917602539 -94.76499938964844,-18.86400032043457 -86.23100280761719,-3.9519999027252197 C-94.82499694824219,-1.0240000486373901 -103.41899871826172,1.902999997138977 -112.01399993896484,4.830999851226807 C-139.65899658203125,-5.573999881744385 -182.74600219726562,-25.843000411987305 -197.23199462890625,10.852999687194824 C-203.41099548339844,26.503000259399414 -196.65499877929688,39.159000396728516 -188.50599670410156,51.845001220703125 C-179.85699462890625,65.31099700927734 -171.20700073242188,78.7770004272461 -162.55799865722656,92.24299621582031 C-153.5260009765625,106.3030014038086 -144.49600219726562,120.36100006103516 -135.46499633789062,134.42100524902344 C-128.16700744628906,145.781005859375 -121.9020004272461,155.43899536132812 -108.43599700927734,160.65499877929688 C-86.9000015258789,168.9969940185547 -63.202999114990234,178.75799560546875 -40.61600112915039,183.4770050048828 C-28.533000946044922,186 -35.665000915527344,184.29400634765625 -38.61899948120117,183.8560028076172 C-33.70399856567383,184.58399963378906 -29.405000686645508,184.76499938964844 -24.57200050354004,183.56700134277344 C-23.347999572753906,183.26499938964844 -22.187000274658203,182.69400024414062 -20.975000381469727,182.3419952392578 C-13.506999969482422,180.1750030517578 -6.163000106811523,177.2969970703125 1.1970000267028809,174.7899932861328 C1.1970000267028809,174.7899932861328 37.777000427246094,162.3300018310547 37.777000427246094,162.3300018310547 C51.15599822998047,166.88800048828125 64.53500366210938,171.44400024414062 77.91400146484375,176.0019989013672 C84.13200378417969,178.1199951171875 91.29900360107422,181.88999938964844 97.83300018310547,182.78599548339844 C101.41100311279297,183.27699279785156 92.73799896240234,180.74600219726562 93.31900024414062,180.7989959716797 C94.20999908447266,180.8800048828125 100.53800201416016,182.67799377441406 104.19400024414062,183.64199829101562 C105.875,183.5030059814453 114.81500244140625,183.98300170898438 117.38099670410156,183.34300231933594 C133.76300048828125,179.25799560546875 149.9010009765625,172.26699829101562 165.8820037841797,166.82200622558594 C172.61099243164062,164.531005859375 180.1959991455078,162.6199951171875 186.2779998779297,158.86099243164062 C199.36700439453125,150.77000427246094 203.41099548339844,137.177001953125 201.2729949951172,123.70800018310547z"></path></g></g><g style="display: block;" transform="matrix(1,0,0,1,63.29200744628906,244.9499969482422)" opacity="1"><g opacity="1" transform="matrix(1,0,0,1,73.5780029296875,80.7979965209961)"><path fill="rgb(18,88,180)" fill-opacity="1" d=" M69.6520004272461,71.05799865722656 C69.6520004272461,71.05799865722656 3.2769999504089355,48.45000076293945 3.2769999504089355,48.45000076293945 C1.6749999523162842,47.90399932861328 0.3050000071525574,46.832000732421875 -0.609000027179718,45.409000396728516 C-0.609000027179718,45.409000396728516 -66.93099975585938,-57.84299850463867 -66.93099975585938,-57.84299850463867 C-70.76200103759766,-63.80799865722656 -64.92900085449219,-71.26100158691406 -58.21900177001953,-68.97599792480469 C-58.21900177001953,-68.97599792480469 -7.877999782562256,-51.82899856567383 -7.877999782562256,-51.82899856567383 C-7.877999782562256,-51.82899856567383 70.4229965209961,70.0719985961914 70.4229965209961,70.0719985961914 C70.76200103759766,70.60099792480469 70.24700164794922,71.26100158691406 69.6520004272461,71.05799865722656z"></path></g><g opacity="1" transform="matrix(1,0,0,1,74.5199966430664,81.1510009765625)"><path fill="rgb(69,42,23)" fill-opacity="1" d=" M68.91999816894531,75.06800079345703 C68.38700103759766,75.06800079345703 67.84600067138672,74.98200225830078 67.3219985961914,74.80400085449219 C67.3219985961914,74.80400085449219 67.31600189208984,74.8030014038086 67.31600189208984,74.8030014038086 C67.31600189208984,74.8030014038086 0.9390000104904175,52.19300079345703 0.9390000104904175,52.19300079345703 C-1.5789999961853027,51.332000732421875 -3.753999948501587,49.630001068115234 -5.190999984741211,47.39500045776367 C-5.190999984741211,47.39500045776367 -71.51399993896484,-55.85900115966797 -71.51399993896484,-55.85900115966797 C-74.26899719238281,-60.14899826049805 -74.01799774169922,-65.51300048828125 -70.8740005493164,-69.5270004272461 C-67.73600006103516,-73.53700256347656 -62.58100128173828,-75.06800079345703 -57.76599884033203,-73.4260025024414 C-57.76599884033203,-73.4260025024414 -5.993000030517578,-55.790000915527344 -5.993000030517578,-55.790000915527344 C-5.993000030517578,-55.790000915527344 -5.179999828338623,-54.520999908447266 -5.179999828338623,-54.520999908447266 C-5.179999828338623,-54.520999908447266 73.12200164794922,67.37999725341797 73.12200164794922,67.37999725341797 C74.26899719238281,69.17400360107422 74.15699768066406,71.48999786376953 72.85299682617188,73.15499877929688 C71.88899993896484,74.38600158691406 70.427001953125,75.06800079345703 68.91999816894531,75.06800079345703z M-61.638999938964844,-65.4219970703125 C-62.97200012207031,-65.4219970703125 -63.79999923706055,-64.52300262451172 -64.06199645996094,-64.19100189208984 C-64.38600158691406,-63.775001525878906 -65.35900115966797,-62.28799819946289 -64.23200225830078,-60.53499984741211 C-64.23200225830078,-60.53499984741211 2.0889999866485596,42.71699905395508 2.0889999866485596,42.71699905395508 C2.4749999046325684,43.31399917602539 3.059000015258789,43.77000045776367 3.7320001125335693,44.00199890136719 C3.7320001125335693,44.00199890136719 60.16899871826172,63.224998474121094 60.16899871826172,63.224998474121094 C60.16899871826172,63.224998474121094 -11.645999908447266,-48.571998596191406 -11.645999908447266,-48.571998596191406 C-11.645999908447266,-48.571998596191406 -60.55500030517578,-65.23400115966797 -60.55500030517578,-65.23400115966797 C-60.946998596191406,-65.36699676513672 -61.308998107910156,-65.4219970703125 -61.638999938964844,-65.4219970703125z"></path></g><g opacity="1" transform="matrix(1,0,0,1,211.38999938964844,78.72000122070312)"><path fill="rgb(18,88,180)" fill-opacity="1" d=" M72.90699768066406,73.05899810791016 C72.90699768066406,73.05899810791016 4.285999774932861,49.685001373291016 4.285999774932861,49.685001373291016 C4.285999774932861,49.685001373291016 -73.72000122070312,-71.75800323486328 -73.72000122070312,-71.75800323486328 C-74.15699768066406,-72.43800354003906 -73.49199676513672,-73.28800201416016 -72.72699737548828,-73.0270004272461 C-72.72699737548828,-73.0270004272461 -4.394999980926514,-49.75199890136719 -4.394999980926514,-49.75199890136719 C-4.394999980926514,-49.75199890136719 73.7750015258789,71.947998046875 73.7750015258789,71.947998046875 C74.15699768066406,72.54299926757812 73.57599639892578,73.28800201416016 72.90699768066406,73.05899810791016z"></path></g><g opacity="1" transform="matrix(1,0,0,1,218.95199584960938,76.29000091552734)"><path fill="rgb(176,226,241)" fill-opacity="1" d=" M36.06100082397461,27.434999465942383 C36.06100082397461,27.434999465942383 9.303000450134277,-14.222000122070312 9.303000450134277,-14.222000122070312 C3.700000047683716,-18.86400032043457 -0.40400001406669617,-22.66200065612793 -1.7730000019073486,-23.954999923706055 C-7.7230000495910645,-26.965999603271484 -14.920999526977539,-27.434999465942383 -19.0939998626709,-25.038000106811523 C-21.375999450683594,-23.725000381469727 -22.5310001373291,-21.672000885009766 -22.628999710083008,-18.764999389648438 C-23.082000732421875,-5.4120001792907715 -32.72600173950195,-0.29899999499320984 -36.06100082397461,1.0759999752044678 C-36.06100082397461,1.0759999752044678 -19.924999237060547,26.195999145507812 -19.924999237060547,26.195999145507812 C-18.163999557495117,19.913000106811523 -13.61299991607666,12.220000267028809 -4.03000020980835,10.531000137329102 C5.947000026702881,8.779000282287598 24.634000778198242,19.822999954223633 36.06100082397461,27.434999465942383z"></path></g><g opacity="1" transform="matrix(1,0,0,1,211.406005859375,78.51499938964844)"><path fill="rgb(69,42,23)" fill-opacity="1" d=" M73.12799835205078,77.63200378417969 C72.58399963378906,77.63200378417969 72.03500366210938,77.54499816894531 71.4990005493164,77.36299896240234 C71.4990005493164,77.36299896240234 71.49700164794922,77.36000061035156 71.49700164794922,77.36000061035156 C71.49700164794922,77.36000061035156 1.444000005722046,53.499000549316406 1.444000005722046,53.499000549316406 C1.444000005722046,53.499000549316406 0.6290000081062317,52.229000091552734 0.6290000081062317,52.229000091552734 C0.6290000081062317,52.229000091552734 -77.37699890136719,-69.21499633789062 -77.37699890136719,-69.21499633789062 C-78.56600189208984,-71.06300354003906 -78.45600128173828,-73.47200012207031 -77.10099792480469,-75.2040023803711 C-75.7490005493164,-76.94000244140625 -73.44200134277344,-77.63200378417969 -71.3479995727539,-76.91899871826172 C-71.3479995727539,-76.91899871826172 -1.5850000381469727,-53.15399932861328 -1.5850000381469727,-53.15399932861328 C-1.5850000381469727,-53.15399932861328 -0.7710000276565552,-51.882999420166016 -0.7710000276565552,-51.882999420166016 C-0.7710000276565552,-51.882999420166016 77.39900207519531,69.81400299072266 77.39900207519531,69.81400299072266 C78.56600189208984,71.62000274658203 78.45800018310547,73.97899627685547 77.13200378417969,75.6780014038086 C76.1510009765625,76.93299865722656 74.66000366210938,77.63200378417969 73.12799835205078,77.63200378417969z M70.11599731445312,74.48799896240234 C70.11900329589844,74.49099731445312 70.11900329589844,74.49400329589844 70.12200164794922,74.49700164794922 C70.12200164794922,74.49700164794922 70.11599731445312,74.48799896240234 70.11599731445312,74.48799896240234z M74.27799987792969,69.16500091552734 C74.27799987792969,69.16500091552734 74.28299713134766,69.16600036621094 74.28299713134766,69.16600036621094 C74.28299713134766,69.16600036621094 74.28099822998047,69.16500091552734 74.27799987792969,69.16500091552734z M7.09499979019165,46.28099822998047 C7.09499979019165,46.28099822998047 64.5739974975586,65.85900115966797 64.5739974975586,65.85900115966797 C64.5739974975586,65.85900115966797 -7.236999988555908,-45.9370002746582 -7.236999988555908,-45.9370002746582 C-7.236999988555908,-45.9370002746582 -64.71600341796875,-65.51599884033203 -64.71600341796875,-65.51599884033203 C-64.71600341796875,-65.51599884033203 7.09499979019165,46.28099822998047 7.09499979019165,46.28099822998047z"></path></g><g opacity="1" transform="matrix(1,0,0,1,140.68800354003906,78.67900085449219)"><path fill="rgb(18,88,180)" fill-opacity="1" d=" M5.080999851226807,73.53700256347656 C5.080999851226807,73.53700256347656 74.98799896240234,49.724998474121094 74.98799896240234,49.724998474121094 C74.98799896240234,49.724998474121094 -3.9800000190734863,-73.21199798583984 -3.9800000190734863,-73.21199798583984 C-4.190999984741211,-73.54199981689453 -4.60099983215332,-73.68499755859375 -4.9720001220703125,-73.55899810791016 C-4.9720001220703125,-73.55899810791016 -74.98799896240234,-49.709999084472656 -74.98799896240234,-49.709999084472656 C-74.98799896240234,-49.709999084472656 3.9170000553131104,73.13099670410156 3.9170000553131104,73.13099670410156 C4.164999961853027,73.51799774169922 4.645999908447266,73.68499755859375 5.080999851226807,73.53700256347656z"></path></g><g opacity="1" transform="matrix(1,0,0,1,156.55499267578125,77.94300079345703)"><path fill="rgb(176,226,241)" fill-opacity="1" d=" M26.336999893188477,-0.578000009059906 C25.724000930786133,-0.32499998807907104 25.298999786376953,-0.18299999833106995 25.211000442504883,-0.15600000321865082 C25.211000442504883,-0.15600000321865082 23.371000289916992,0.40700000524520874 23.371000289916992,0.40700000524520874 C23.371000289916992,0.40700000524520874 21.722999572753906,-0.5849999785423279 21.722999572753906,-0.5849999785423279 C20.46299934387207,-1.340000033378601 18.621000289916992,-2.1600000858306885 16.488000869750977,-3.1070001125335693 C9.664999961853027,-6.144000053405762 -0.6470000147819519,-10.734000205993652 -11.60099983215332,-21.68899917602539 C-19.59600067138672,-29.68199920654297 -32.792999267578125,-28.790000915527344 -39.244998931884766,-25.072999954223633 C-41.23899841308594,-23.924999237060547 -42.472999572753906,-22.527000427246094 -42.244998931884766,-21.673999786376953 C-41.5369987487793,-19.003000259399414 -41.69300079345703,-16.177000045776367 -42.33399963378906,-13.380999565124512 C-35.558998107910156,-10.793000221252441 -22.34000015258789,-4.4720001220703125 -15.29699993133545,7.455999851226807 C-8.343999862670898,19.242000579833984 24.420000076293945,29.68199920654297 42.027000427246094,26.32699966430664 C42.14699935913086,25.75200080871582 42.30099868774414,25.152000427246094 42.47200012207031,24.542999267578125 C42.47200012207031,24.542999267578125 26.336999893188477,-0.578000009059906 26.336999893188477,-0.578000009059906z"></path></g><g opacity="1" transform="matrix(1,0,0,1,140.68699645996094,78.42500305175781)"><path fill="rgb(69,42,23)" fill-opacity="1" d=" M4.749000072479248,78.17500305175781 C2.9739999771118164,78.17500305175781 1.2760000228881836,77.28399658203125 0.27300000190734863,75.71800231933594 C0.27300000190734863,75.71800231933594 -81.61699676513672,-51.768001556396484 -81.61699676513672,-51.768001556396484 C-81.61699676513672,-51.768001556396484 -6.364999771118164,-77.4010009765625 -6.364999771118164,-77.4010009765625 C-4.099999904632568,-78.17500305175781 -1.61899995803833,-77.302001953125 -0.3310000002384186,-75.28600311279297 C-0.3310000002384186,-75.28600311279297 81.61699676513672,52.292999267578125 81.61699676513672,52.292999267578125 C81.61699676513672,52.292999267578125 6.48199987411499,77.88600158691406 6.48199987411499,77.88600158691406 C5.909999847412109,78.08200073242188 5.327000141143799,78.17500305175781 4.749000072479248,78.17500305175781z M7.551000118255615,71.03800201416016 C7.551000118255615,71.03800201416016 7.557000160217285,71.0469970703125 7.557000160217285,71.0469970703125 C7.557000160217285,71.04399871826172 7.553999900817871,71.04100036621094 7.551000118255615,71.03800201416016z M3.688999891281128,69.69300079345703 C3.683000087738037,69.69499969482422 3.678999900817871,69.6969985961914 3.6730000972747803,69.697998046875 C3.6730000972747803,69.697998046875 3.688999891281128,69.69300079345703 3.688999891281128,69.69300079345703z M-68.35800170898438,-47.141998291015625 C-68.35800170898438,-47.141998291015625 6.1519999504089355,68.8550033569336 6.1519999504089355,68.8550033569336 C6.1519999504089355,68.8550033569336 68.35800170898438,47.66699981689453 68.35800170898438,47.66699981689453 C68.35800170898438,47.66699981689453 -6.1519999504089355,-68.33000183105469 -6.1519999504089355,-68.33000183105469 C-6.1519999504089355,-68.33000183105469 -68.35800170898438,-47.141998291015625 -68.35800170898438,-47.141998291015625z M-7.61899995803833,-70.61900329589844 C-7.61899995803833,-70.61900329589844 -7.611000061035156,-70.60199737548828 -7.611000061035156,-70.60199737548828 C-7.611000061035156,-70.60199737548828 -7.61899995803833,-70.61900329589844 -7.61899995803833,-70.61900329589844z"></path></g><g opacity="1" transform="matrix(1,0,0,1,280.7120056152344,79.00700378417969)"><path fill="rgb(18,88,180)" fill-opacity="1" d=" M6.5960001945495605,73.1259994506836 C6.5960001945495605,73.1259994506836 67.2040023803711,52.48099899291992 67.2040023803711,52.48099899291992 C71.80799865722656,50.91400146484375 73.71700286865234,45.441001892089844 71.08899688720703,41.349998474121094 C71.08899688720703,41.349998474121094 0.09799999743700027,-69.1729965209961 0.09799999743700027,-69.1729965209961 C-1.7619999647140503,-72.06800079345703 -5.35699987411499,-73.322998046875 -8.614999771118164,-72.21299743652344 C-8.614999771118164,-72.21299743652344 -73.71700286865234,-50.03799819946289 -73.71700286865234,-50.03799819946289 C-73.71700286865234,-50.03799819946289 5.048999786376953,72.58699798583984 5.048999786376953,72.58699798583984 C5.379000186920166,73.10099792480469 6.01800012588501,73.322998046875 6.5960001945495605,73.1259994506836z"></path></g><g opacity="1" transform="matrix(1,0,0,1,250.20399475097656,85.4000015258789)"><path fill="rgb(176,226,241)" fill-opacity="1" d=" M4.809000015258789,18.325000762939453 C7.813000202178955,20.326000213623047 10.343000411987305,22.101999282836914 12.04800033569336,23.332000732421875 C13.288000106811523,22.839000701904297 15.871999740600586,21.33300018310547 18.655000686645508,16.725000381469727 C21.947999954223633,11.281000137329102 18.80299949645996,3.9040000438690186 17.27899932861328,0.9459999799728394 C3.8350000381469727,-3.3440001010894775 -11.63700008392334,-14.789999961853027 -21.947999954223633,-23.332000732421875 C-21.947999954223633,-23.332000732421875 4.809000015258789,18.325000762939453 4.809000015258789,18.325000762939453z"></path></g><g opacity="1" transform="matrix(1,0,0,1,279.114013671875,78.73799896240234)"><path fill="rgb(69,42,23)" fill-opacity="1" d=" M7.764999866485596,77.7959976196289 C5.882999897003174,77.7959976196289 4.078999996185303,76.85399627685547 3.010999917984009,75.2040023803711 C3.010999917984009,75.2040023803711 -78.74800109863281,-52.08100128173828 -78.74800109863281,-52.08100128173828 C-78.74800109863281,-52.08100128173828 -8.411999702453613,-76.04000091552734 -8.411999702453613,-76.04000091552734 C-3.253999948501587,-77.7959976196289 2.3980000019073486,-75.82099914550781 5.335999965667725,-71.24199676513672 C5.335999965667725,-71.24199676513672 76.3280029296875,39.27899932861328 76.3280029296875,39.27899932861328 C78.30599975585938,42.356998443603516 78.74800109863281,46.10300064086914 77.54199981689453,49.55699920654297 C76.33899688720703,53.01100158691406 73.66000366210938,55.667999267578125 70.197998046875,56.847999572753906 C70.197998046875,56.847999572753906 9.581000328063965,77.49299621582031 9.581000328063965,77.49299621582031 C8.984000205993652,77.69599914550781 8.369999885559082,77.7959976196289 7.764999866485596,77.7959976196289z M-65.48899841308594,-47.45600128173828 C-65.48899841308594,-47.45600128173828 9.017999649047852,68.54299926757812 9.017999649047852,68.54299926757812 C9.017999649047852,68.54299926757812 67.40799713134766,48.65299987792969 67.40799713134766,48.65299987792969 C68.6760025024414,48.222999572753906 69.18399810791016,47.24800109863281 69.37200164794922,46.70399856567383 C69.56099700927734,46.1619987487793 69.77200317382812,45.08300018310547 69.0469970703125,43.95600128173828 C69.0469970703125,43.95600128173828 -1.9429999589920044,-66.56400299072266 -1.9429999589920044,-66.56400299072266 C-2.7290000915527344,-67.78900146484375 -4.244999885559082,-68.32099914550781 -5.623000144958496,-67.8479995727539 C-5.623000144958496,-67.8479995727539 -65.48899841308594,-47.45600128173828 -65.48899841308594,-47.45600128173828z"></path></g></g><g style="display: block;" transform="matrix(1,0,0,1,75.46601867675781,268.18499755859375)" opacity="1"><g opacity="1" transform="matrix(1,0,0,1,153.4429931640625,60.34700012207031)"><path fill="rgb(69,42,23)" fill-opacity="1" d=" M153.1929931640625,-16.858999252319336 C153.1929931640625,-16.858999252319336 146.64599609375,-22.51799964904785 146.64599609375,-22.51799964904785 C146.4739990234375,-22.319000244140625 129.11599731445312,-2.7019999027252197 110.34700012207031,-4.215000152587891 C94.11900329589844,-5.539999961853027 66.40799713134766,-28.99799919128418 57.0989990234375,-37.92499923706055 C57.0989990234375,-37.92499923706055 56.67100143432617,-38.33399963378906 56.67100143432617,-38.33399963378906 C56.67100143432617,-38.33399963378906 56.150001525878906,-38.6150016784668 56.150001525878906,-38.6150016784668 C47.380001068115234,-43.32400131225586 36.8380012512207,-43.80799865722656 29.923999786376953,-39.83000183105469 C25.049999237060547,-37.02399826049805 22.2549991607666,-32.23400115966797 22.05699920654297,-26.347999572753906 C21.815000534057617,-19.222000122070312 17.51300048828125,-15.979999542236328 15.12399959564209,-14.72599983215332 C13.866999626159668,-15.35200023651123 12.472000122070312,-15.972999572753906 10.946000099182129,-16.652999877929688 C4.333000183105469,-19.59600067138672 -4.7210001945495605,-23.62700080871582 -14.543000221252441,-33.44599914550781 C-25.009000778198242,-43.90999984741211 -42.45399856567383,-44.06100082397461 -52.625,-38.21200180053711 C-58.34400177001953,-34.91699981689453 -60.97800064086914,-30.011999130249023 -59.67399978637695,-25.091999053955078 C-58.361000061035156,-20.142000198364258 -63.595001220703125,-11.633000373840332 -67.9260025024414,-6.408999919891357 C-71.85900115966797,-6.7769999504089355 -80.69100189208984,-7.964000225067139 -86.87799835205078,-11.498000144958496 C-91.00800323486328,-13.857999801635742 -95.61399841308594,-19.371999740600586 -100.947998046875,-25.757999420166016 C-106.1240005493164,-31.951000213623047 -111.98699951171875,-38.9739990234375 -119.25800323486328,-45.39099884033203 C-135.9250030517578,-60.09600067138672 -152.5,-53.26499938964844 -153.1929931640625,-52.96699905395508 C-153.1929931640625,-52.96699905395508 -149.7949981689453,-45.00699996948242 -149.7949981689453,-45.00699996948242 C-149.66799926757812,-45.05699920654297 -137.59300231933594,-50.02199935913086 -124.98300170898438,-38.900001525878906 C-118.20700073242188,-32.92100143432617 -112.56700134277344,-26.167999267578125 -107.59100341796875,-20.208999633789062 C-101.72200012207031,-13.184000015258789 -96.65399932861328,-7.117000102996826 -91.1719970703125,-3.9839999675750732 C-81.2239990234375,1.7000000476837158 -66.86900329589844,2.36299991607666 -66.26300048828125,2.3889999389648438 C-66.26300048828125,2.3889999389648438 -64.2490005493164,2.4739999771118164 -64.2490005493164,2.4739999771118164 C-64.2490005493164,2.4739999771118164 -62.88800048828125,0.9869999885559082 -62.88800048828125,0.9869999885559082 C-62.058998107910156,0.0820000022649765 -57.74100112915039,-4.7829999923706055 -54.50600051879883,-10.928000450134277 C-48.82899856567383,-8.74899959564209 -37.49300003051758,-3.4049999713897705 -31.812999725341797,6.2179999351501465 C-29.572999954223633,10.012999534606934 -25.790000915527344,13.498000144958496 -21.070999145507812,16.56599998474121 C-22.18600082397461,22.027000427246094 -26.06599998474121,34.595001220703125 -38.36600112915039,36.17499923706055 C-48.77399826049805,33.180999755859375 -68.84700012207031,32.39899826049805 -76.03700256347656,49.70000076293945 C-76.03700256347656,49.70000076293945 -68.0469970703125,53.02299880981445 -68.0469970703125,53.02299880981445 C-61.84299850463867,38.097999572753906 -40.9640007019043,44.42100143432617 -40.084999084472656,44.69499969482422 C-40.084999084472656,44.69499969482422 -39.262001037597656,44.95600128173828 -39.262001037597656,44.95600128173828 C-39.262001037597656,44.95600128173828 -38.400001525878906,44.88199996948242 -38.400001525878906,44.88199996948242 C-23.049999237060547,43.53799819946289 -15.795000076293945,30.83300018310547 -13.156000137329102,20.940000534057617 C2.796999931335449,28.44300079345703 24.135000228881836,31.95199966430664 36.91600036621094,28.67799949645996 C42.54499816894531,30.06100082397461 71.12200164794922,38.029998779296875 84.58899688720703,60.09600067138672 C84.58899688720703,60.09600067138672 91.9749984741211,55.5890007019043 91.9749984741211,55.5890007019043 C78.28600311279297,33.15399932861328 51.98099899291992,23.867000579833984 41.80699920654297,21.009000778198242 C42.78200149536133,17.597999572753906 45.14400100708008,12.76200008392334 50.80799865722656,11.762999534606934 C58.11399841308594,10.503999710083008 79.83899688720703,23.523000717163086 92.9749984741211,33.189998626708984 C92.9749984741211,33.189998626708984 93.9729995727539,33.92300033569336 93.9729995727539,33.92300033569336 C93.9729995727539,33.92300033569336 95.20700073242188,34.02000045776367 95.20700073242188,34.02000045776367 C95.28600311279297,34.025001525878906 95.427001953125,34.03300094604492 95.61799621582031,34.03300094604492 C97.49500274658203,34.03300094604492 104.44200134277344,33.290000915527344 110.64900207519531,23.02199935913086 C114.44999694824219,16.73699951171875 113.55799865722656,9.708000183105469 111.90499877929688,4.502999782562256 C112.09600067138672,4.50600004196167 112.28900146484375,4.525000095367432 112.4800033569336,4.525000095367432 C134.4669952392578,4.525000095367432 152.4080047607422,-15.949999809265137 153.1929931640625,-16.858999252319336z M103.24199676513672,18.54400062561035 C100.45899963378906,23.150999069213867 97.875,24.656999588012695 96.63600158691406,25.149999618530273 C88.44200134277344,19.243000030517578 61.90599822998047,1.0260000228881836 49.305999755859375,3.239000082015991 C38.79600143432617,5.0920000076293945 34.32699966430664,14.173999786376953 32.965999603271484,20.68899917602539 C15.357999801635742,24.042999267578125 -17.405000686645508,13.604000091552734 -24.357999801635742,1.8170000314712524 C-31.400999069213867,-10.109999656677246 -44.62099838256836,-16.430999755859375 -51.395999908447266,-19.018999099731445 C-50.755001068115234,-21.81399917602539 -50.597999572753906,-24.641000747680664 -51.305999755859375,-27.31100082397461 C-51.534000396728516,-28.165000915527344 -50.29999923706055,-29.562000274658203 -48.305999755859375,-30.711000442504883 C-41.854000091552734,-34.428001403808594 -28.656999588012695,-35.31999969482422 -20.66200065612793,-27.32699966430664 C-9.708000183105469,-16.371999740600586 0.6029999852180481,-11.781999588012695 7.427000045776367,-8.744999885559082 C9.559000015258789,-7.797999858856201 11.402000427246094,-6.9770002365112305 12.661999702453613,-6.2230000495910645 C12.661999702453613,-6.2230000495910645 14.3100004196167,-5.230999946594238 14.3100004196167,-5.230999946594238 C14.3100004196167,-5.230999946594238 16.149999618530273,-5.794000148773193 16.149999618530273,-5.794000148773193 C16.72100067138672,-5.968999862670898 30.172000885009766,-10.25100040435791 30.707000732421875,-26.05699920654297 C30.80500030517578,-28.964000701904297 31.961000442504883,-31.017000198364258 34.242000579833984,-32.32899856567383 C38.415000915527344,-34.72700119018555 45.612998962402344,-34.257999420166016 51.5629997253418,-31.246000289916992 C55.45100021362305,-27.573999404907227 81.11699676513672,-3.8559999465942383 101.86599731445312,2.765000104904175 C103.38999938964844,5.7230000495910645 106.53500366210938,13.100000381469727 103.24199676513672,18.54400062561035z"></path></g></g><g style="display: block;" transform="matrix(1,0,0,1,156.1439971923828,80.90501403808594)" opacity="1"><g opacity="1" transform="matrix(1,0,0,1,86.22599792480469,122.0199966430664)"><path fill="rgb(18,88,180)" fill-opacity="1" d=" M70.0719985961914,5.676000118255615 C77.66000366210938,-7.519000053405762 81.64800262451172,-23.04599952697754 80.69499969482422,-39.566001892089844 C78.36199951171875,-80.01300048828125 45.76599884033203,-113.01200103759766 5.3480000495910645,-115.7969970703125 C-42.12300109863281,-119.06600189208984 -81.64800262451172,-81.5260009765625 -81.64800262451172,-34.75400161743164 C-81.64800262451172,-20.106000900268555 -77.77100372314453,-6.366000175476074 -70.98799896240234,5.500999927520752 C-58.76100158691406,26.888999938964844 -46.71200180053711,48.37699890136719 -35.98099899291992,70.55400085449219 C-35.98099899291992,70.55400085449219 -20.759000778198242,102.01300048828125 -20.759000778198242,102.01300048828125 C-12.506999969482422,119.06500244140625 11.782999992370605,119.06500244140625 20.034000396728516,102.01300048828125 C20.034000396728516,102.01300048828125 38.362998962402344,64.13500213623047 38.362998962402344,64.13500213623047 C48.02299880981445,44.16899871826172 59.01599884033203,24.90399932861328 70.0719985961914,5.676000118255615z"></path></g><g opacity="1" transform="matrix(1,0,0,1,86.22799682617188,120.69999694824219)"><path fill="rgb(69,42,23)" fill-opacity="1" d=" M-0.36500000953674316,120.44999694824219 C-0.36500000953674316,120.44999694824219 -0.367000013589859,120.44999694824219 -0.367000013589859,120.44999694824219 C-10.803000450134277,120.447998046875 -20.11199951171875,114.61199951171875 -24.6560001373291,105.21800231933594 C-24.6560001373291,105.21800231933594 -39.88100051879883,73.75800323486328 -39.88100051879883,73.75800323486328 C-50.91600036621094,50.946998596191406 -63.665000915527344,28.354999542236328 -74.74500274658203,8.968999862670898 C-82.09600067138672,-3.890000104904175 -85.97799682617188,-18.551000595092773 -85.97799682617188,-33.43299865722656 C-85.97799682617188,-57.0620002746582 -76.06700134277344,-79.86599731445312 -58.78499984741211,-95.99700164794922 C-41.263999938964844,-112.35399627685547 -18.37299919128418,-120.44999694824219 5.644999980926514,-118.79299926757812 C48.42100143432617,-115.84700012207031 82.54399871826172,-81.3270034790039 85.01200103759766,-38.49599838256836 C85.97799682617188,-21.736000061035156 82.11000061035156,-5.258999824523926 73.8239974975586,9.152000427246094 C62.058998107910156,29.607999801635742 51.56399917602539,48.10499954223633 42.25699996948242,67.33999633789062 C42.25699996948242,67.33999633789062 23.929000854492188,105.21800231933594 23.929000854492188,105.21800231933594 C19.382999420166016,114.61399841308594 10.074000358581543,120.44999694824219 -0.36500000953674316,120.44999694824219z M-0.4690000116825104,-110.3499984741211 C-20.041000366210938,-110.3499984741211 -38.47800064086914,-103.11499786376953 -52.880001068115234,-89.66999816894531 C-68.41500091552734,-75.16899871826172 -77.322998046875,-54.672000885009766 -77.322998046875,-33.43299865722656 C-77.322998046875,-20.055999755859375 -73.83499908447266,-6.877999782562256 -67.23200225830078,4.673999786376953 C-56.077999114990234,24.18400001525879 -43.24399948120117,46.930999755859375 -32.0880012512207,69.98799896240234 C-32.0880012512207,69.98799896240234 -16.863000869750977,101.447998046875 -16.863000869750977,101.447998046875 C-13.729999542236328,107.927001953125 -7.563000202178955,111.79399871826172 -0.36500000953674316,111.79499816894531 C6.834000110626221,111.79499816894531 13.00100040435791,107.927001953125 16.13599967956543,101.447998046875 C16.13599967956543,101.447998046875 34.4640007019043,63.56999969482422 34.4640007019043,63.56999969482422 C43.89899826049805,44.07699966430664 54.47200012207031,25.43899917602539 66.31900024414062,4.839000225067139 C73.76499938964844,-8.109999656677246 77.24199676513672,-22.92300033569336 76.3740005493164,-37.99700164794922 C74.15399932861328,-76.48799896240234 43.4900016784668,-107.51200103759766 5.046999931335449,-110.15799713134766 C3.2019999027252197,-110.28600311279297 1.3630000352859497,-110.3499984741211 -0.4690000116825104,-110.3499984741211z"></path></g></g><g style="display: block;" transform="matrix(0.450856477022171,0,0,1,219.55462646484375,118.46599578857422)" opacity="1"><g opacity="1" transform="matrix(1,0,0,1,49.70399856567383,49.70600128173828)"><path fill="rgb(255,253,250)" fill-opacity="1" d=" M45.12799835205078,0 C45.12799835205078,24.923999786376953 24.923999786376953,45.12799835205078 0,45.12799835205078 C-24.92300033569336,45.12799835205078 -45.12799835205078,24.923999786376953 -45.12799835205078,0 C-45.12799835205078,-24.923999786376953 -24.92300033569336,-45.12799835205078 0,-45.12799835205078 C24.923999786376953,-45.12799835205078 45.12799835205078,-24.923999786376953 45.12799835205078,0z"></path></g><g opacity="1" transform="matrix(1,0,0,1,49.70399856567383,49.70600128173828)"><path fill="rgb(69,42,23)" fill-opacity="1" d=" M-0.0010000000474974513,49.45600128173828 C-27.270000457763672,49.45600128173828 -49.45399856567383,27.270000457763672 -49.45399856567383,0 C-49.45399856567383,-27.270999908447266 -27.270000457763672,-49.45600128173828 -0.0010000000474974513,-49.45600128173828 C27.26799964904785,-49.45600128173828 49.45399856567383,-27.270999908447266 49.45399856567383,0 C49.45399856567383,27.270000457763672 27.26799964904785,49.45600128173828 -0.0010000000474974513,49.45600128173828z M-0.0010000000474974513,-40.80099868774414 C-22.49799919128418,-40.80099868774414 -40.79899978637695,-22.49799919128418 -40.79899978637695,0 C-40.79899978637695,22.49799919128418 -22.49799919128418,40.80099868774414 -0.0010000000474974513,40.80099868774414 C22.496000289916992,40.80099868774414 40.79899978637695,22.49799919128418 40.79899978637695,0 C40.79899978637695,-22.49799919128418 22.496000289916992,-40.80099868774414 -0.0010000000474974513,-40.80099868774414z"></path></g></g><g style="display: block;" transform="matrix(1,0,0,1,263.32501220703125,245.5959930419922)" opacity="1"><g opacity="1" transform="matrix(1,0,0,1,6.800000190734863,8.057000160217285)"><path fill="rgb(253,250,242)" fill-opacity="1" d=" M3.4089999198913574,-6.625999927520752 C3.4089999198913574,-6.625999927520752 3.4040000438690186,-6.627999782562256 3.4040000438690186,-6.627999782562256 C1.1239999532699585,-7.807000160217285 -1.6950000524520874,-6.910999774932861 -2.8580000400543213,-4.620999813079834 C-3.7170000076293945,-2.9260001182556152 -4.567999839782715,-1.2269999980926514 -5.410999774932861,0.4779999852180481 C-6.550000190734863,2.7809998989105225 -5.577000141143799,5.578000068664551 -3.2660000324249268,6.697000026702881 C-3.2660000324249268,6.697000026702881 -3.259999990463257,6.698999881744385 -3.259999990463257,6.698999881744385 C-0.9710000157356262,7.807000160217285 1.7699999809265137,6.8520002365112305 2.8980000019073486,4.572999954223633 C3.7239999771118164,2.9049999713897705 4.558000087738037,1.2430000305175781 5.400000095367432,-0.4169999957084656 C6.551000118255615,-2.687000036239624 5.671000003814697,-5.458000183105469 3.4089999198913574,-6.625999927520752z"></path></g></g><g style="display: block;" transform="matrix(1,0,0,1,278.1759948730469,163.85198974609375)" opacity="1"><g opacity="1" transform="matrix(1,0,0,1,17.246999740600586,34.82600021362305)"><path fill="rgb(253,250,242)" fill-opacity="1" d=" M12.050999641418457,-34.42100143432617 C9.652999877929688,-34.28300094604492 7.728000164031982,-32.332000732421875 7.703999996185303,-29.92799949645996 C7.598999977111816,-19.39699935913086 4.836999893188477,-9.156999588012695 -0.3790000081062317,-0.08399999886751175 C-5.14900016784668,8.215999603271484 -10.571999549865723,17.68000030517578 -15.758000373840332,27.055999755859375 C-16.996999740600586,29.297000885009766 -16.167999267578125,32.119998931884766 -13.920000076293945,33.347999572753906 C-13.920000076293945,33.347999572753906 -13.913999557495117,33.35100173950195 -13.913999557495117,33.35100173950195 C-11.675000190734863,34.57600021362305 -8.875,33.75600051879883 -7.638999938964844,31.52199935913086 C-2.492000102996826,22.21299934387207 2.9049999713897705,12.793999671936035 7.65500020980835,4.5329999923706055 C13.637999534606934,-5.875999927520752 16.81999969482422,-17.607999801635742 16.96500015258789,-29.666000366210938 C16.996999740600586,-32.37900161743164 14.760000228881836,-34.57600021362305 12.050999641418457,-34.42100143432617z"></path></g></g><g style="display: block;" transform="matrix(1,0,0,1,246.22998046875,97.80899810791016)" opacity="1"><g opacity="1" transform="matrix(1,0,0,1,16.14299964904785,8.878000259399414)"><path fill="rgb(253,250,242)" fill-opacity="1" d=" M12.67199993133545,-0.7319999933242798 C5.486000061035156,-4.552000045776367 -2.3489999771118164,-7.104000091552734 -10.406000137329102,-8.248000144958496 C-13.086000442504883,-8.628000259399414 -15.539999961853027,-6.669000148773193 -15.72700023651123,-3.9690001010894775 C-15.892999649047852,-1.565999984741211 -14.1899995803833,0.5740000009536743 -11.805000305175781,0.9089999794960022 C-4.745999813079834,1.899999976158142 2.11899995803833,4.13700008392334 8.406999588012695,7.49399995803833 C10.532999992370605,8.628000259399414 13.170000076293945,7.9019999504089355 14.451000213623047,5.861999988555908 C14.451000213623047,5.861999988555908 14.45199966430664,5.860000133514404 14.45199966430664,5.860000133514404 C15.892999649047852,3.566999912261963 15.062999725341797,0.5389999747276306 12.67199993133545,-0.7319999933242798z"></path></g></g><g style="display: block;" transform="matrix(1,0,0,1,171.26800537109375,98.072998046875)" opacity="1"><g opacity="1" transform="matrix(1,0,0,1,32.24300003051758,35.17300033569336)"><path fill="rgb(253,250,242)" fill-opacity="1" d=" M31.749000549316406,-30.361000061035156 C31.475000381469727,-33.04899978637695 28.961000442504883,-34.92399978637695 26.29800033569336,-34.4640007019043 C-5.625999927520752,-28.945999145507812 -29.55299949645996,-2.433000087738037 -31.80500030517578,29.917999267578125 C-31.993000030517578,32.61399841308594 -29.874000549316406,34.92300033569336 -27.17099952697754,34.92300033569336 C-27.17099952697754,34.92300033569336 -27.16900062561035,34.92300033569336 -27.16900062561035,34.92300033569336 C-24.7549991607666,34.92300033569336 -22.733999252319336,33.06800079345703 -22.56999969482422,30.660999298095703 C-20.648000717163086,2.499000072479248 0.18299999833106995,-20.586000442504883 27.975000381469727,-25.351999282836914 C30.35300064086914,-25.760000228881836 31.993999481201172,-27.957000732421875 31.749000549316406,-30.357999801635742 C31.749000549316406,-30.357999801635742 31.749000549316406,-30.361000061035156 31.749000549316406,-30.361000061035156z"></path></g></g></g></svg>