<?xml version="1.0" standalone="no"?><svg xmlns="http://www.w3.org/2000/svg" viewBox="0 0 1440 320"><path fill="#002166" fill-opacity="1" d="M0,256L17.1,229.3C34.3,203,69,149,103,138.7C137.1,128,171,160,206,165.3C240,171,274,149,309,133.3C342.9,117,377,107,411,85.3C445.7,64,480,32,514,21.3C548.6,11,583,21,617,32C651.4,43,686,53,720,58.7C754.3,64,789,64,823,58.7C857.1,53,891,43,926,42.7C960,43,994,53,1029,53.3C1062.9,53,1097,43,1131,80C1165.7,117,1200,203,1234,229.3C1268.6,256,1303,224,1337,224C1371.4,224,1406,256,1423,272L1440,288L1440,0L1422.9,0C1405.7,0,1371,0,1337,0C1302.9,0,1269,0,1234,0C1200,0,1166,0,1131,0C1097.1,0,1063,0,1029,0C994.3,0,960,0,926,0C891.4,0,857,0,823,0C788.6,0,754,0,720,0C685.7,0,651,0,617,0C582.9,0,549,0,514,0C480,0,446,0,411,0C377.1,0,343,0,309,0C274.3,0,240,0,206,0C171.4,0,137,0,103,0C68.6,0,34,0,17,0L0,0Z"></path></svg>