<?xml version="1.0" standalone="no"?><svg xmlns="http://www.w3.org/2000/svg" viewBox="0 0 1440 320"><path fill="#002166" fill-opacity="1" d="M0,192L9.6,170.7C19.2,149,38,107,58,85.3C76.8,64,96,64,115,96C134.4,128,154,192,173,224C192,256,211,256,230,240C249.6,224,269,192,288,181.3C307.2,171,326,181,346,170.7C364.8,160,384,128,403,149.3C422.4,171,442,245,461,240C480,235,499,149,518,133.3C537.6,117,557,171,576,165.3C595.2,160,614,96,634,90.7C652.8,85,672,139,691,170.7C710.4,203,730,213,749,224C768,235,787,245,806,240C825.6,235,845,213,864,202.7C883.2,192,902,192,922,192C940.8,192,960,192,979,197.3C998.4,203,1018,213,1037,224C1056,235,1075,245,1094,234.7C1113.6,224,1133,192,1152,170.7C1171.2,149,1190,139,1210,117.3C1228.8,96,1248,64,1267,74.7C1286.4,85,1306,139,1325,154.7C1344,171,1363,149,1382,160C1401.6,171,1421,213,1430,234.7L1440,256L1440,0L1430.4,0C1420.8,0,1402,0,1382,0C1363.2,0,1344,0,1325,0C1305.6,0,1286,0,1267,0C1248,0,1229,0,1210,0C1190.4,0,1171,0,1152,0C1132.8,0,1114,0,1094,0C1075.2,0,1056,0,1037,0C1017.6,0,998,0,979,0C960,0,941,0,922,0C902.4,0,883,0,864,0C844.8,0,826,0,806,0C787.2,0,768,0,749,0C729.6,0,710,0,691,0C672,0,653,0,634,0C614.4,0,595,0,576,0C556.8,0,538,0,518,0C499.2,0,480,0,461,0C441.6,0,422,0,403,0C384,0,365,0,346,0C326.4,0,307,0,288,0C268.8,0,250,0,230,0C211.2,0,192,0,173,0C153.6,0,134,0,115,0C96,0,77,0,58,0C38.4,0,19,0,10,0L0,0Z"></path></svg>