<?xml version="1.0" standalone="no"?><svg xmlns="http://www.w3.org/2000/svg" viewBox="0 0 1440 320"><path fill="#002166" fill-opacity="1" d="M0,288L12.6,245.3C25.3,203,51,117,76,90.7C101.1,64,126,96,152,96C176.8,96,202,64,227,80C252.6,96,278,160,303,197.3C328.4,235,354,245,379,218.7C404.2,192,429,128,455,122.7C480,117,505,171,531,186.7C555.8,203,581,181,606,192C631.6,203,657,245,682,229.3C707.4,213,733,139,758,133.3C783.2,128,808,192,834,229.3C858.9,267,884,277,909,261.3C934.7,245,960,203,985,186.7C1010.5,171,1036,181,1061,197.3C1086.3,213,1112,235,1137,224C1162.1,213,1187,171,1213,160C1237.9,149,1263,171,1288,181.3C1313.7,192,1339,192,1364,165.3C1389.5,139,1415,85,1427,58.7L1440,32L1440,320L1427.4,320C1414.7,320,1389,320,1364,320C1338.9,320,1314,320,1288,320C1263.2,320,1238,320,1213,320C1187.4,320,1162,320,1137,320C1111.6,320,1086,320,1061,320C1035.8,320,1011,320,985,320C960,320,935,320,909,320C884.2,320,859,320,834,320C808.4,320,783,320,758,320C732.6,320,707,320,682,320C656.8,320,632,320,606,320C581.1,320,556,320,531,320C505.3,320,480,320,455,320C429.5,320,404,320,379,320C353.7,320,328,320,303,320C277.9,320,253,320,227,320C202.1,320,177,320,152,320C126.3,320,101,320,76,320C50.5,320,25,320,13,320L0,320Z"></path></svg>